<?xml version="1.0" standalone="no"?>
<svg width="800" height="800" xmlns="http://www.w3.org/2000/svg" id="stage-svg" xmlns:xlink="http://www.w3.org/1999/xlink" preserveAspectRatio="none" viewBox="0 0 385 385"><g transform=""><g transform=""><defs><path fill="#AA816C" d="M191.5 95.8q0-39.7-28.05-67.75-16.2-16.2-36.3-23.05-14.7-5-31.4-5t-31.4 5q-20.1 6.85-36.3 23.05Q0 56.1 0 95.8q0 32.25 18.5 56.85l.05.05q.6.75 1.2 1.55l1 1.2L28 163.5q0 .05.05.05l.7.7q3.5 3.4 7.15 6.4v.05l-.05-.05q-5.81 7.718-10.6 17.75-.078.183-.2.35l-.3.7q-.06.17-.15.35-.117.253-.25.5l-2.6 6.15q-5.345 13.608-8.3 30.1-.05.2-.05.4-.15 2.45.15 4.85Q15.7 245.9 31 249.35q.2.05.45.1l.05-.05q.15.05.25.05.2.6.4 1.15.4.95 1.1 1.75 0 .05.05.1v19.45q-3.9.7-7.8 2.5-.6.267-1.2.55-.94.67 0 .8h143.25q1 0 0-.6-.775-.405-1.55-.75-3.9-1.8-7.8-2.5v-19.45q.05-.05.05-.1.7-.8 1.1-1.75.2-.55.4-1.15.1 0 .25-.05l.05.05q.25-.05.45-.1 15.3-3.45 17.45-17.55.3-2.4.15-4.85 0-.2-.05-.4-3.7-20.65-11.15-36.75-4.8-10.45-11.15-18.95h-.05q0-.1-.1-.2 3.65-3 7.15-6.4l.7-.7q.05 0 .05-.05l7.25-8.05 1-1.2q.6-.8 1.2-1.55l.05-.05q18.5-24.6 18.5-56.85z" id="SkiSki001__Symbol_10_0_Layer0_0_FILL"/><path fill="#956E5A" d="M-36.05 227.75h-.2l-3.9.15-1.3.1q-8.5.6-13.15 1.65-4.7 1-5.35 1.3-.15.05-.25.1 8-1.3 16.1-1.8.3-.05.65-.05l2-.1q.2-.05.35-.05h.3q15.4-.65 30.05 2l4.15.7q1.15.2 2.3.45 1.75.35 3.45.75l.3.1q.1 0 .2.05.15 0 .3.05-.4-.15-.8-.25-1.7-.6-3.45-1.05-.55-.15-1.05-.3-.15-.05-.25-.05-10.8-3-22-3.6-.4-.05-.8-.05-.55-.05-1.15-.05l-6.5-.05m3.4-52.2q3.05 1.2 6.25 0 1.6-1.65.35-3.6-.1-.15-.15-.25-3.05-1-6.9 0-.5.7-.6 1.4-.2 1.1.8 2.25.1.1.25.2M3.2 203.7q-1.25-1.15-2.25 0-.05.25 0 .55.25 1.6.15 3.25l.1.05q.7.3 1.05-.35l.1-.2q.15-.45.3-.85.25-.8.4-1.55.05-.15.05-.3l.1-.6m55.4 25.95q-4.65-1.05-13.15-1.65l-1.3-.1-3.9-.15h-.2l-6.5.05q-.6 0-1.15.05-.4 0-.8.05-11.2.6-22 3.6-.1 0-.25.05-.5.15-1.05.3-1.75.45-3.45 1.05-.4.1-.8.25.15-.05.3-.05.1-.05.2-.05l.3-.1q1.7-.4 3.45-.75 1.15-.25 2.3-.45l4.15-.7q14.65-2.65 30.05-2h.3q.15 0 .35.05l2 .1q.35 0 .65.05 8.1.5 16.1 1.8-.1-.05-.25-.1-.65-.3-5.35-1.3M29.55 173.1q-.2 1.1.8 2.25.1.1.25.2 3.05 1.2 6.25 0 1.6-1.65.35-3.6-.1-.15-.15-.25-3.05-1-6.9 0-.5.7-.6 1.4z" id="SkiSki001__hll_0_Layer0_0_FILL"/><path fill="#6D4B3A" d="M-54 165.45q-.05.05-.05.1l-4.3 21.85q-.45 2.1-.85 4.05l-.1.6q-.2.8-.35 1.6-1.5 7.35-2.3 12.15-.75 4.4.45-.6.4-2.5 1.45-6.25.1-.6.25-1.25.7-3.15 1.3-5.65.65-3.05 1.15-5.1h.05l-.05-.05v-.05q.2-.9.35-1.55.2-.95.4-1.55v-.05q0-.15.05-.25.15-.75.2-.85l3.25-16.8.05-.05q0-.25-.1-.4-.1-.2-.3-.2-.2-.05-.3 0-.05 0-.05.05-.05 0-.1.05t-.1.2m81.8 53.1q5.828-.808 11.3-1.95-.15 0-.3.05-.95.05-1.9.15-.75.05-1.5.15-13.1 1.2-26.3 1.45-4.5.1-9 .1-17-.1-34.1-1.8-.65-.1-1.2-.15 5.808 1.176 11.85 2 11.28 1.525 23.45 1.85h.55v.1l1.4 12.2v-.4l.05.4 1.4-12.2v-.1h.05q.15 0 .35.05l5.2-.2q9.762-.455 18.7-1.7m30.1-53.2l-.05-.05q-.15-.05-.35 0-.2 0-.3.2-.1.15-.05.4l3.25 16.85q.1.2 1.05 4.3v.05q.45 2 1.1 4.95.55 2.4 1.2 5.4l.1.4q.25 1.2.5 2.25 1 3.35 1.35 5.75 1.05 4.3.3.1-.9-5.3-2.65-13.9-.4-2.15-.9-4.5L58.1 165.7v-.1q-.1-.2-.2-.25m2.25-34.1q-1.35 1.05-2.8 2.1l-1.55 1.15q-20.35 14.1-45.8 16l-1.1.05q-3.35.2-6.8.2h-.2q-3.45 0-6.8-.2l-1.1-.05q-25.45-1.9-45.8-16l-1.55-1.15q-1.45-1.05-2.8-2.1l-1.15-.9q10.019 8.81 21.45 14.1 17.928 7.84 37.75 7.85h.2q19.823-.01 37.75-7.85 11.45-5.3 21.45-14.05l-1.15.85z" id="SkiSki001__hdd_0_Layer0_0_FILL"/><filter id="SkiSki001__Filter_1" x="-20%" y="-20%" width="140%" height="140%" color-interpolation-filters="sRGB"><feColorMatrix in="SourceGraphic" values="1 0 0 0 0 0 1 0 0 0 0 0 1 0 0 0 0 0 0.75 0" result="result1"/></filter></defs><use xlink:href="#SkiSki001__Symbol_10_0_Layer0_0_FILL" xmlns:xlink="http://www.w3.org/1999/xlink" transform="translate(96.75 58)" id="SkiSki001__col1n"/><use xlink:href="#SkiSki001__hll_0_Layer0_0_FILL" xmlns:xlink="http://www.w3.org/1999/xlink" transform="matrix(1.00052 0 0 1 190.5 98.75)" id="SkiSki001__col1d"/><use filter="url(#SkiSki001__Filter_1)" xlink:href="#SkiSki001__hdd_0_Layer0_0_FILL" xmlns:xlink="http://www.w3.org/1999/xlink" transform="matrix(1.00052 0 0 1 190.5 98.75)" id="SkiSki001__col1s"/></g></g><g transform=""><g transform=""><defs><path fill="#00002C" d="M125.7.05l.05-.05q-4 .8-8 1.45-.7.15-1.45.25-4.8.8-9.55 1.45l-.7.1q-44.1 6-87.2 0-.15-.05-.25-.05-2.7-.4-5.35-.8l-3.8-.6q-.55-.15-1.1-.2l-.4-.1Q3.95.8 0 0q0 .05.05.1v19.5q3.95-.7 7.9-1.1.2-.05.4-.05.55-.1 1.1-.15 1.9-.2 3.8-.35 2.7-.2 5.35-.35h.25q22.75-1.05 44 4.75 20.9-5.7 43.2-4.8.35 0 .7.05 4.75.2 9.55.7.7.1 1.45.15 3.95.45 7.95 1.15V.05z" id="LegPan011__Symbol_16_0_Layer0_0_FILL"/><path fill="#00002C" d="M10.9 1.8q-.15-.05-.25-.05-2.7-.4-5.35-.8L1.5.35Q.95.2.4.15L0 .05v17Q.2 17 .4 17q.55-.1 1.1-.15 1.9-.2 3.8-.35 2.7-.2 5.35-.35h.25V1.8m87.9 14.35q4.75.2 9.55.7.7.1 1.45.15V0q-.7.15-1.45.25-4.8.8-9.55 1.45v14.45z" id="LegPan011__Symbol_17_0_Layer0_0_FILL"/></defs><use xlink:href="#LegPan011__Symbol_16_0_Layer0_0_FILL" xmlns:xlink="http://www.w3.org/1999/xlink" transform="translate(129.65 310.25)" id="LegPan011__col1n"/><use xlink:href="#LegPan011__Symbol_17_0_Layer0_0_FILL" xmlns:xlink="http://www.w3.org/1999/xlink" transform="translate(137.6 311.7)" id="LegPan011__col2n"/></g></g><g transform=""><g transform=""><defs><path fill="#000000" d="M146.9 7.7q-9-5.25-23.3-6.95-13.1-1.45-27.4 0-7 .8-14.2 2.45l-8.3 2.05-8.3-2.05Q58.2 1.55 51.2.75 36.9-.7 23.8.75 9.1 2.5 0 8h147.4l-.5-.3z" id="LegSho001__Symbol_2_0_Layer0_0_FILL"/></defs><use xlink:href="#LegSho001__Symbol_2_0_Layer0_0_FILL" xmlns:xlink="http://www.w3.org/1999/xlink" transform="translate(118.8 326)" id="LegSho001__col1n"/></g></g><g transform="translate(0 0)"><g transform=""><defs><path fill="#FFF" d="M220.2 245.8q.03-.036 0-.1-8.937 2.647-18.65 3.45-.524.06-1.05.1l-1.1.05q-2.921.174-5.95.2-.315-.1-.8-.1-.502 0-.85.1-3.146-.018-6.2-.2l-1.1-.05q-3.884-.29-7.65-.9-5.082-.747-9.95-2.05-.721-.167-1.45-.4.458 1.165 1.05 2.3.593 1.581 1.4 3.3l.05.05q.5 1.2 1.25 2.5.4.6.7 1.2 5.2 9.85 12.7 18.85.6.85 1.4 1.6.2.35.5.75.474.474.95 1-.15.283-.15.85 0 .55 1.15 1.9.6.75 1.6 1.85.3.35 1.3 2.1 1.15 1.55 2.45 1.55 2.3 0 7.65-7.35-.013-.279-.1-.5l.35-.35q.8-.9 1.55-1.8.6-.75 1.35-1.6 2.55-3.1 4.9-6.3 4.4-6.1 7.8-12.55.4-.6.7-1.2.75-1.3 1.3-2.5.212-.424.4-.85.599-1.213 1.15-2.5.5-1.2 1-2.3l.35-.1m-22.3 11.5q-.048 0-.05.2-.005-.203-.15-.3l.2.1m2.9-3.45l.3.2h-.4l.1-.2m-13.25 3.35q-.098.098-.1.3-.002-.2-.15-.2l.25-.1m-3.35-3.2v.05h-.05l.05-.05z" id="ShiLon037__Layer20_0_FILL"/><path fill="#E0E0E0" d="M166.95 246.5q-.047-.093-.05-.2-.721-.167-1.45-.4.463 1.16.75 6.25.133 1.819.35 2.25.391 1.346 1.4 4.15 2.744 7.442 9 11.9 6.251 4.505 7.05 5.25.2.35.5.75.75.75 1.5 1.6v-.15q-.35-.5-.7-.9-.4-.5-.8-.95l-.1-.3q0-.05-.05-.15-.1-.15-.2-.25-6.15-8.85-8.85-17.7 4-.25 8.85-2.25l.9-.45h.15l1.5-.75-2.5-.15-1.9.9q-.35.15-.5.2-.15.1-.25.1-2.5 1.15-5.9 1.3-.45-.1-.85 0-3.15-.15-4.3-2.65v-.1q-.646-1.09-1.2-2.2-.844-1.55-1.5-3.1-.55-1-.85-2m.95 5.05q.016-.011 0-.05l.05.05q-.022.013-.05 0m51.95-5.65q-.8.2-1.5.4-.35 1.15-.85 2.2-.572 1.239-1.25 2.5-.712 1.387-1.55 2.8v.1q-.9 2.3-4.3 2.65-.4-.1-.85 0-3.4-.15-5.9-1.3-.05 0-.2-.1-.15-.05-.55-.2l-1.9-.9h-.3l-2.2.3 1.75.6q.45.2.75.3 5.25 2.25 9.4 2.4h.05q-2.95 8.9-9.35 17.8l-1 1.35-.9 1.1v.15q.25-.3.5-.55.8-.9 1.55-1.8.6-.75 1.35-1.6 2.556-3.097 7-6.55 4.477-3.414 6.85-7.95 1.797-3.34 1.3-4.4.146-.657.3-1.45 1.303-6.747 1.8-7.85m-2.7 8.8h-.05.05z" id="ShiLon037__Layer20_1_FILL"/><path fill="#00284D" d="M162.7 44.9q-.35-1.35-.65-2.7l-.2-.6-.4-1.6q-.75-2.7-1.6-5.3-.3-1-.6-1.95-.3-.8-.55-1.6-.1-.2-.15-.35-.45-1.25-.85-2.45-.9-2.4-1.85-4.75-1-2.3-2-4.5-1.8-3.95-3.85-7.6-1-1.85-2.1-3.6-.6-.95-1.15-1.9-2-3.1-4.2-6l-1.85 1.4q-1.35 1.05-2.8 2.1l-1.55 1.15q-12.15 8.4-26.1 12.5v.05l-.4.1q-.5 1.1-1 2.3-.55 1.3-1.1 2.5-.25.45-.45.85-.55 1.2-1.3 2.5-.3.6-.7 1.2-3.4 6.45-7.8 12.55-2.35 3.2-4.9 6.3-.75.85-1.35 1.6-.75.9-1.55 1.8-.25.25-.5.55l-.1.15q-.2.3-.6.6-.05.15-.3.2-.05.25-.35.55-.15.15-.4.3-1.35 1.5-2.9 3.25-.05 0-.05.1l-1.75 1.7h-.15q-.15 0-.25.05-.2-.2-.35-.25-2.2-2.6-4.25-4.85-.2-.15-.3-.3-.35-.3-.45-.55-.2-.05-.3-.2l-.1-.1q-.35-.25-.45-.5l-.15-.15q-.75-.85-1.5-1.6-.3-.4-.5-.75-.8-.75-1.4-1.6-7.5-9-12.7-18.85-.3-.6-.7-1.2-.75-1.3-1.25-2.5v-.05q-.85-1.7-1.45-3.3-.6-1.15-1.05-2.25Q42.2 13.6 30.6 5.95q-.8-.5-1.55-1.05-.2-.1-.4-.25L27.1 3.5q-1.45-1.05-2.8-2.1L22.45 0q-.1.05-.15.15-3.05 4.1-5.7 8.55-.85 1.45-1.65 2.9-1.5 2.7-2.85 5.55-.5.95-.95 1.95-2.05 4.45-3.8 9.25l-.9 2.4q-.15.4-.3.85-.7 2.05-1.35 4.2-.85 2.85-1.65 5.8-.1.3-.15.6l-.7 2.7-.1.5h.05q-.15.5-.25 1-.1.3-.15.6l-.3 1.4q-.4 1.7-.75 3.4v.2q-.2.9-.35 1.8-.2 1-.4 2.05-.05.2-.05.4v.1q3-2.6 7.05-3.35.15-.05.3-.05l1.85-.2q8.1-.35 12.65 4.7l-2.8 11.75q-.55 2.1-1.05 4.2l-.9 3.6-.95 3.6v.25l-.05.05h.2q.25.1.5.15H16.95q2.05.5 4.15.95 30.8 7 61.4 7 30.75 0 61.3-7 2.1-.45 4.15-.95H148.1q.25-.05.5-.15h.2l-.05-.2v-.05l.05.05v-.1h-.05l-5.15-20.7h-.05l-.55-2.45q4.55-5.05 12.65-4.7l2.05.2q.15 0 .3.05 4.05.75 7.05 3.35V56.2q0-.15-.05-.35-.3-1.55-.55-3.05l-.1-.4q-.05-.2-.05-.4-.35-1.55-.65-3.05l-.1-.5q-.2-.75-.35-1.45-.05-.3-.15-.6-.15-.75-.35-1.5z" id="ShiLon037__Symbol_308_0_Layer0_0_FILL"/><path fill="#000000" d="M21.65 63.45V55.2l-19 2.4-2 8.5 21-2.65m-.85-7.2v6.45L1.95 64.95l1.4-6.55 4.2-.5q0 .05-.3.1l13.55-1.75M5.15 30.75q-.15-.2-.35-.25-.2-.05-.35.1-.2.1-.25.3L0 52.35v.2q0 .1.1.15v.05q.1.15.3.2.2.05.4-.05.15-.15.2-.35l4.2-21.4v-.05q.05-.2-.05-.35M120.1 66.1l-2-8.5-19-2.4v8.25l21 2.65m-6.6-8.1q-.3-.052-.3-.1l4.2.5 1.4 6.55-18.85-2.25v-6.45L113.5 58m2.9-27.1q-.05-.2-.25-.3-.15-.15-.35-.1l-.2.1q-.1.05-.15.15-.1.15-.05.35v.05l4.2 21.4q.05.2.2.35.2.1.4.05t.3-.2v-.05q.1-.05.1-.15v-.2l-4.2-21.45m-28.85 7.8v6.9l21.1-4.15v-6.6l-21.1 3.85m.75 5.9l-.15-5.15 19.9-3.45v4.9L88.3 44.6m24.45-41.1q.25-.4.3-.85.5-1.2.95-2.65l-1.6 1.1q-.3 1.3-.6 2.35-.4 1.05-.8 1.85-.6 1.9-1.05 2.8l-15.5 5.4 9.7 4.7q-1.55 1.9-3.1 3.7-4.55 4.9-9.8 9.45-1.9 1.6-3.7 3.1-4.55 3.65-8.4 6.3-.3.3-.7.5-5.6 4.05-11.35 7.2-.3.1-.65.3-.1 0-.3.15-.3.15-.6.4-1.85 1.05-3.9 2.05-.35.2-.6.3l.1-.25q-.15.1-.3.15H60.7q-.1 0-.2.05 0-.05-.05-.05h-.15q-.15 0-.25.05h-.1q-.3-.1-.5-.2l.15.25q-.3-.25-.65-.3-2-1.05-3.8-2.05-.35-.25-.65-.4-.25-.15-.35-.15-.3-.2-.65-.3-.6-.45-1.3-.75-5-2.85-10-6.45-.45-.2-.75-.5-5.45-3.85-12.1-9.4-5.25-4.4-9.6-9.45-1.75-1.8-3.25-3.7l9.65-4.7-15.5-5.4q-.45-.9-1.05-2.8-.45-.8-.7-1.85-.4-1.05-.6-2.25Q7.5.7 6.75.15q.3 1.35.8 2.45.05.5.3.9 1 2.8 1.5 4.1l.6 1.3 1.1.45L23.9 13.5l-8.7 4.45q.15.15.2.25.25.3.45.65 0 .1.1.15.25.4 2.35 2.9.6.7 1.2 1.5 3.1 3.85 9.85 9.3 5.2 4.35 10.3 8.05 1.3 1.05 2.65 2.1 3.95 2.95 9.9 6.35.4.25.75.4.25.15 1.55.9.3.1 1.55.85.15.05.25.05l.2.15q.25.1.55.3l.4.2 2.15.75.1 31.35h1.2V62.6h-.1v-9.65l.7-.25v-.05q.4-.1.85-.25l.1-.05q.35-.15.75-.3l.5-.2q0-.05.1-.05.05-.15.3-.25l.2-.15q.1 0 .25-.05 1.3-.75 1.6-.85l1.5-.9q6.45-3.65 10.65-6.75 1.45-1.05 2.8-2.1 3.95-2.95 8.05-6.3 1.05-.8 2.1-1.75 6.75-5.45 9.85-9.3.7-.8 1.3-1.5 2.05-2.5 2.25-2.9.1-.05.1-.15.2-.35.45-.65.05-.1.2-.25l-8.7-4.45 12.9-4.15 1.05-.45.6-1.3q.55-1.3 1.5-4.1z" id="ShiLon037__Symbol_243_0_Layer0_0_FILL"/><path fill="#830000" d="M3.3 8q.002-.202.1-.3l-.25.1q.148 0 .15.2m10.25-.3q.145.097.15.3.002-.2.05-.2l-.2-.1m3-3.15h.4L8.9 0H8L0 4.55h.05l2.5.15.6.15.45.9q.25.65 1.25 1.1.15.05.35.1l.25.75q0 .25.05.5V9L3.6 30.35q2.05 2.25 4.25 4.85.15.05.35.25.1-.05.25-.05h.15l1.75-1.7q0-.1.05-.1 1.55-1.75 2.9-3.25L11.4 9q0-.4.05-.8 0-.25.05-.5.15-.45.2-.75 1.3-.45 1.6-1.2.25-.4.45-.9h.6l2.2-.3z" id="ShiLon037__Symbol_207_0_Layer0_0_FILL"/><path fill="#190000" d="M2.55 1.7l.6.15V1.7q0-.1-.05-.3Q2.85.65 2.85 0L0 1.55h.05l2.5.15m8.95 3q.15-.45.2-.75-3.25.45-6.5 0l.25.75q0 .25.05.5 1.85.55 5.95 0l-2.15.05.2-.05h1.95q0-.25.05-.5m5.05-3.15h.4L14.05 0q-.05.8-.2 1.55-.1.05-.1.15v.15h.6l2.2-.3z" id="ShiLon037__Symbol_166_0_Layer0_0_FILL"/><path fill="#FFC400" d="M186.8 274.25v1.35h6.7v-1.35h-6.7z" id="ShiLon037__Layer11_1_FILL"/><g id="ShiLon037__Layer11_0_FILL"><path fill="#FFC400" d="M196.15 303.75q.7.6 1.55.6.8 0 1.4-.6.6-.6.6-1.4 0-.85-.6-1.55-.6-.5-1.4-.5-.85 0-1.55.5-.5.7-.5 1.55 0 .8.5 1.4m2.95-14.15q-.6-.5-1.4-.5-.85 0-1.55.5-.5.7-.5 1.55 0 .8.5 1.35.7.65 1.55.65.8 0 1.4-.65.6-.55.6-1.35 0-.85-.6-1.55z"/><path fill="#FFF" d="M223.7 268.55v2.9l15.6-2.9v-3.25l-15.6 3.25z"/></g></defs><use xlink:href="#ShiLon037__Layer20_0_FILL" xmlns:xlink="http://www.w3.org/1999/xlink"/><use xlink:href="#ShiLon037__Layer20_1_FILL" xmlns:xlink="http://www.w3.org/1999/xlink"/><use xlink:href="#ShiLon037__Symbol_308_0_Layer0_0_FILL" xmlns:xlink="http://www.w3.org/1999/xlink" transform="translate(110 228.6)" id="ShiLon037__col1n"/><use xlink:href="#ShiLon037__Symbol_243_0_Layer0_0_FILL" xmlns:xlink="http://www.w3.org/1999/xlink" transform="translate(132.3 233.35)" id="ShiLon037__col1s"/><use xlink:href="#ShiLon037__Symbol_207_0_Layer0_0_FILL" xmlns:xlink="http://www.w3.org/1999/xlink" transform="translate(184.15 249.5)" id="ShiLon037__col2n"/><use xlink:href="#ShiLon037__Symbol_166_0_Layer0_0_FILL" xmlns:xlink="http://www.w3.org/1999/xlink" transform="translate(184.15 252.5)" id="ShiLon037__col2s"/><use xlink:href="#ShiLon037__Layer11_0_FILL" xmlns:xlink="http://www.w3.org/1999/xlink"/><use xlink:href="#ShiLon037__Layer11_1_FILL" xmlns:xlink="http://www.w3.org/1999/xlink"/></g></g><g transform=""><g transform=""><defs><path fill="#AA816C" d="M34.65 11q0-3.2-2.25-5.45-1.65-1.65-3.8-2.1-.3-.05-.55-.1-.25-.05-.5-.05-.15-.05-.35 0-.15-.05-.35 0h-.4q-.7.05-1.25.15-.15.05-.35.1Q20.7-.05 15.1 0 9.35-.05 5.2 3.65q-.05.05-.1.15-.2.1-.35.25-.05 0-.05.05l-.05.05-.2.2q-.25.25-.45.5-.05 0-.05.05l-.05.05-.3.3Q0 9.4 0 15q0 6.2 4.45 10.6Q8.85 30 15.1 30q2.9 0 5.4-.95.1-.05.2-.05.05-.05.15-.1h.05q.05-.05.15-.1.4-.15.75-.35l.8-.4q.1-.05.15-.1l.1-.05q1.5-.95 2.9-2.3 3.25-3.25 4.1-7.45.05-.05.1-.05l.3-.1q1.15-.55 2.15-1.55 2.25-2.25 2.25-5.45m135.6-6.85V4.1l-.05-.05q-.2-.15-.35-.25-.05-.1-.1-.15-4.2-3.7-9.9-3.65-5.65-.05-9.7 3.55-.2-.05-.35-.1-.4-.1-.8-.1l-.8-.05q-.2-.05-.35 0-.25-.05-.4 0-.25 0-.45.05h-.05q-.25.05-.45.1-2.2.45-3.85 2.1-2.3 2.25-2.3 5.45t2.3 5.45q.95 1 2.15 1.55l.3.1q.85 4.25 4.1 7.5 1.35 1.35 2.9 2.3.05 0 .1.05t.15.1q.35.2.75.4.35.2.75.35l.2.1h.05q.05.05.15.1.1 0 .2.05 2.5.95 5.4.95 6.25 0 10.65-4.4t4.45-10.6q-.05-5.6-3.65-9.75-.15-.15-.25-.3l-.1-.1q-.25-.25-.45-.5-.15-.1-.25-.2z" id="BodHan001__Symbol_2_0_Layer0_0_FILL"/><path fill="#956E5A" d="M15.5 7.75q0-3.2-2.25-5.45Q11.6.65 9.45.2 9.15.15 8.9.1 8.65.05 8.4.05q-.15-.05-.35 0Q7.9 0 7.7.05h-.4Q6.6.1 6.05.2 5.9.25 5.7.3q-1.95.45-3.45 2Q0 4.55 0 7.75t2.25 5.45q1.7 1.7 3.95 2.1l1.5.15h.1l.75-.05q1.15-.1 2.15-.5.05-.05.1-.05l.3-.1q1.15-.55 2.15-1.55 2.25-2.25 2.25-5.45M12.45 3q1.95 1.95 1.95 4.75 0 2.75-1.95 4.7-.85.9-1.85 1.4-1 .45-2.05.55l-.75.05h-.1l-1.3-.15q-1.9-.4-3.35-1.85-2-1.95-1.95-4.7Q1.05 4.95 3.05 3q1.45-1.45 3.3-1.8.5-.1 1-.15H7.8q.4 0 .85.1 2.15.25 3.8 1.85m124.3 4.75q-.05-3.2-2.3-5.45-1.5-1.55-3.4-2H131q-.2-.05-.35-.1-.4-.1-.8-.1l-.8-.05q-.2-.05-.35 0-.25-.05-.4 0-.25 0-.45.05h-.05q-.25.05-.45.1-2.2.45-3.85 2.1-2.3 2.25-2.3 5.45t2.3 5.45q.95 1 2.15 1.55l.3.1q1 .4 2.25.55l.75.05h.1l1.5-.15q2.2-.4 3.9-2.1 2.25-2.25 2.3-5.45M133.7 3q1.95 1.95 1.95 4.75 0 2.75-1.95 4.7-1.45 1.45-3.35 1.85l-1.3.15h-.1l-.75-.05q-1.1-.1-2-.55-1.05-.5-1.95-1.4-1.95-1.95-1.9-4.7-.05-2.8 1.9-4.75 1.65-1.6 3.8-1.85h.05q.4-.1.85-.1H129.4q.5.05 1 .15 1.85.35 3.3 1.8z" id="BodHan001__Symbol_1_0_Layer0_0_FILL"/></defs><use xlink:href="#BodHan001__Symbol_2_0_Layer0_0_FILL" xmlns:xlink="http://www.w3.org/1999/xlink" transform="translate(105.05 280.6)" id="BodHan001__col1n"/><use xlink:href="#BodHan001__Symbol_1_0_Layer0_0_FILL" xmlns:xlink="http://www.w3.org/1999/xlink" transform="translate(124.2 283.85)" id="BodHan001__col1d"/></g></g><g transform="translate(0 -2)"><g transform=""><defs><path fill="#000000" d="M27.95.55q-.15-.35-.5-.5-.4-.15-.75.05Q14.55 5.7 1.35.1.95-.1.6.1.25.2.1.6q-.2.35 0 .7.1.35.5.55Q14.65 7.8 27.5 1.8q.35-.15.5-.5.15-.4-.05-.75z" id="FacMou001__Symbol_1_0_Layer0_0_FILL"/></defs><g id="FacMou001__col1n" transform="translate(178.5 224.8)"><use xlink:href="#FacMou001__Symbol_1_0_Layer0_0_FILL" xmlns:xlink="http://www.w3.org/1999/xlink" id="FacMou001__col1n_FL"/></g></g></g><g transform="translate(0 0)"><g transform="" class="active-stage-item"><defs><path fill="#AA816C" d="M105.35 24.4q-1.2-4.7-3.8-8.85-1.7-2.75-4.05-5.3-.15-.2-.3-.35Q88.85.9 77.85.1 66.8-.75 59.55 7q-5.35 5.75-6.3 13.7-1-7.95-6.35-13.7Q39.65-.75 28.65.1 17.6.9 9.25 9.9q-.3.3-.55.65l-.3.3q-5 5.65-7 12.4Q.35 26.8.1 30.65q-.2 2.7.05 5.15.25 3.15 1.25 6 1.65 4.65 5.15 8.4 7.25 7.75 18.25 6.9 11.05-.8 19.4-9.75 7.8-8.4 9.05-19.25 1.2 10.85 9 19.25 8.35 8.95 19.4 9.75 11 .85 18.25-6.9 3.75-4 5.35-9.15.75-2.4 1-5.05.3-2.6.1-5.4-.2-3.2-1-6.2z" id="FacEye007__Symbol_1_0_Layer0_0_FILL"/><path fill="#9A3200" d="M1.55 1.55Q0 3.1 0 5.25q0 2.15 1.55 3.7 1.6 1.55 3.85 1.6 2.15-.05 3.75-1.6 1.55-1.55 1.55-3.7 0-2.15-1.55-3.7Q7.55-.05 5.4 0 3.15-.05 1.55 1.55m3.75.35q1.4-.05 2.35.9.3.3.5.65.5.75.5 1.7 0 1.4-1 2.35-.95 1-2.35 1.05-1.4-.05-2.4-1-.05 0-.05-.05l-.45-.45q-.55-.85-.55-1.9 0-1.35 1-2.35 1-.95 2.45-.9m37.35 3.4q0-2.15-1.6-3.7Q39.45 0 37.3.05 35.05 0 33.45 1.6 31.9 3.15 31.9 5.3q0 2.15 1.55 3.7 1.6 1.55 3.85 1.6 2.15-.05 3.75-1.6t1.6-3.7m-5.3-3.35q1.3 0 2.2.9 1 1 1 2.35 0 1.4-1 2.35-.9.95-2.2 1.05-.1-.05-.15 0-1.45-.05-2.45-1.05-1-.95-1-2.35 0-1.35 1-2.35 1-.95 2.45-.9.05-.05.15 0z" id="FacEye007__Symbol_10_0_Layer0_0_FILL"/><path d="M211.75 166.7q0-1.35-1-2.35-.9-.9-2.2-.9-.1-.05-.15 0-1.45-.05-2.45.9-1 1-1 2.35 0 1.4 1 2.35 1 1 2.45 1.05.05-.05.15 0 1.3-.1 2.2-1.05 1-.95 1-2.35m-32.4-1.75q-.2-.35-.5-.65-.95-.95-2.35-.9-1.45-.05-2.45.9-1 1-1 2.35 0 1.05.55 1.9l.45.45q0 .05.05.05 1 .95 2.4 1 1.4-.05 2.35-1.05 1-.95 1-2.35 0-.95-.5-1.7z" id="FacEye007__Layer6_0_FILL"/></defs><g id="FacEye007__col1n" transform="translate(139.3 136.2)"><use xlink:href="#FacEye007__Symbol_1_0_Layer0_0_FILL" xmlns:xlink="http://www.w3.org/1999/xlink" id="FacEye007__col1n_FL"/></g><g id="FacEye007__col2n" transform="translate(171.2 161.5)"><use xlink:href="#FacEye007__Symbol_10_0_Layer0_0_FILL" xmlns:xlink="http://www.w3.org/1999/xlink" id="FacEye007__col2n_FL"/></g><use xlink:href="#FacEye007__Layer6_0_FILL" xmlns:xlink="http://www.w3.org/1999/xlink"/></g></g><g transform=""><g transform=""><defs><path fill="#252525" d="M187.5 25.35q3.3 14.35 3.4 19-.2 5.1-.9 7.35-.9 6.7-3.45 19.75-3.15.9-4.7 1.15l.2.05q1.9 2.15 1.9 6.7-.55 4.15-3.05 6.6-.65.6-1.7 1.1-.8.6-.8 2.4 0 3.15-.15 5.05-.1.2-.15.35-.1.2-.2.5-1.1 2.3-4.65 7.35-.45-2.95-.5-4.5-2.95 7-4.7 9.45-3.2 4.65-7.85 5.5-.25-.3-.7-1.7-1.05.55-2.5 1.25-4.6 2.25-7.2 3.55-8.7 4.6-15.45 3.75l-3.5 5.85-2.15-3.9-3.1 11q-.1.4-.2.85-.3 1.05-.65 2-2.3 6.2-7.5 8.7-.15 0-.25.05-2.85.95-6.25.25-2.5-.35-5.1-2.35-3.6-1.6-7.2-1.7h-.5q-3.6.1-7.2 1.7-2.6 2-5.1 2.35-3.4.7-6.25-.25-.1-.05-.25-.05-5.25-2.5-7.5-8.7-.35-.95-.65-2-.1-.45-.2-.85l-3.1-11-2.15 3.9-3.5-5.85q-6.75.85-15.45-3.75-2.6-1.3-7.2-3.55-1.45-.7-2.5-1.25-.45 1.4-.7 1.7-4.65-.85-7.85-5.5-1.75-2.45-4.7-9.45-.05 1.55-.5 4.5-3.55-5.05-4.65-7.35-.1-.3-.2-.5-.05-.15-.15-.35-.15-1.9-.15-5.05 0-1.8-.8-2.4-1.05-.5-1.7-1.1-2.5-2.45-3.05-6.6 0-4.55 1.9-6.7l.2-.05q-1.55-.25-4.7-1.15Q7.3 58.4 6.4 51.7q-.7-2.25-.9-7.35.1-4.65 3.3-19-2.1 4.4-5.7 16.2-.45 1.5-1.9 4.9Q0 50 0 57.8v2.15q1.25-1 2-1.75v13.95q-.35 2.6-.75 3.7Q3.15 83.6 6 91.95q8.55 24.95 32.4 43.85.2.15.35.3 13.65 12.6 35.9 19.4l.35.15q5 1.6 9.95 2.5 13.25 2.45 26.55 0 5.25-1 10.6-2.7h-.4q20.363-5.333 34.3-17.9l.05-.05q2.002-1.75 2.1-1.8 23.75-18.85 32.25-43.75 2.85-8.35 4.75-16.1-.4-1.1-.75-3.7V58.2q.75.75 2 1.75V57.8q0-7.8-1.2-11.35-1.45-3.4-1.9-4.9-3.6-11.8-5.8-16.2M47.95 119.3v.1h-.05l.05-.1m100.5 0l.05.1h-.05v-.1z" id="BeaChi020__Symbol_59_0_Layer0_0_FILL"/><path fill="none" d="M191.9 10.6q-.25 12.5-11.7 36.75-2.45 5.65-4.7 5.65-.75 0-1.45-.5-.65-.55-.55-1-1.7 3.6-4.8 8.65-4.55 7.35-6.45 7.35-.35 0-1.25-.25-.95-.25-1.25-.25-.15 0-.6.45-3.75 6.75-9.4 10.15-2.45 1.5-5.3 2.35-1.85.7-3.55.8h-.15q-.05.1-.05.15-1.05 2-1.4 2.6-.95 1.5-1.45 1.5-.15 0-1.25-.5-1.15-.5-1.85-.5-.55 4.15-2.05 5-11.95 4.55-23.15 6.3-2.65-.25-4.6-.8-3.6-1-6.35-1-.65 0-1.4.05-.1 0-.25.05-.15-.05-.25-.05-.75-.05-1.4-.05-2.75 0-6.35 1-1.95.55-4.6.8-11.2-1.75-23.15-6.3-1.5-.85-2.05-5-.7 0-1.85.5-1.1.5-1.25.5-.5 0-1.45-1.5-.35-.6-1.4-2.6 0-.05-.05-.15H53q-1.7-.1-3.55-.8-2.85-.85-5.3-2.35-5.65-3.4-9.4-10.15-.45-.45-.6-.45-.3 0-1.25.25-.9.25-1.25.25-1.9 0-6.45-7.35-3.1-5.05-4.8-8.65.1.45-.55 1-.7.5-1.45.5-2.25 0-4.7-5.65Q2.25 23.1 2 10.6 1.2 5.45.75 0v13.95q-.35 2.6-.75 3.7 1.9 7.75 4.75 16.1Q13.3 58.7 37.15 77.6q.2.15.35.3 13.65 12.6 35.9 19.4l.35.15q5 1.6 9.95 2.5 13.25 2.45 26.55 0 5.25-1 10.6-2.7h-.4q20.363-5.333 34.3-17.9l.05-.05q2.002-1.75 2.1-1.8 23.75-18.85 32.25-43.75 2.85-8.35 4.75-16.1-.4-1.1-.75-3.7V0q-.45 5.45-1.25 10.6z" id="BeaChi020__Symbol_18_0_Layer0_0_FILL"/></defs><use xlink:href="#BeaChi020__Symbol_59_0_Layer0_0_FILL" xmlns:xlink="http://www.w3.org/1999/xlink" transform="translate(94.3 93.05)" id="BeaChi020__col1n"/><use xlink:href="#BeaChi020__Symbol_18_0_Layer0_0_FILL" xmlns:xlink="http://www.w3.org/1999/xlink" transform="translate(95.55 151.25)" id="BeaChi020__col1d"/></g></g><g transform=""><g transform=""><defs><path fill="#252525" d="M66.6 15.05V15q.05.05.15.1 1.8 1.4 4.85 4.15 3.5 2.25 3.95-1.5-.5-1.2 1.2-2.15 2.35-3.35-1.8-5.05-4.2-1.65-8-3.95-3.85-2.3-9-4.7-10.75-3.8-15.75 0-.25.2-.45.45-.4.15-.75.3-.5.4-1.15.5h-.8q-.7-.1-1.2-.5l-.7-.3q-.25-.25-.5-.45-5-3.8-15.7 0-5.2 2.4-9.1 4.25Q7.95 8 3.4 10.5q-4.55 2.45-3 3.95 1.3 1.3.85 2.9.6 5.25 5.5 2.75.2-.4.35-.65 3.15-2.9 5.05-4.35l.1-.1.05.05q26.65-11.35 54.3 0z" id="BeaMus015__Symbol_32_0_Layer0_0_FILL"/></defs><use xlink:href="#BeaMus015__Symbol_32_0_Layer0_0_FILL" xmlns:xlink="http://www.w3.org/1999/xlink" transform="translate(153.7 199.45)" id="BeaMus015__col1n"/></g></g><g transform="translate(0 0)"><g transform=""><defs><path fill="#252525" d="M2.15 2.1q.35-.35.35-.85t-.35-.9Q1.75 0 1.25 0T.4.35q-.4.4-.4.9t.4.85q.35.4.85.4t.9-.4z" id="AccGla004__Symbol_95_0_Layer0_0_FILL"/><path fill="#434343" fill-opacity="0.502" d="M129.15 24.75q.1-1.95.1-4.3.05-2.8-.1-6.15-.2-6.95-.3-5.15-.05-9.5-19.9-9.15-17.65.3-32.5 4.7-1.85.55-2.6.85-.65.2-2.65 1.25-1.25.65-2.2 2.35h-8.8q-.95-1.55-2.15-2.2-2-1.05-2.65-1.25-.75-.3-2.6-.85Q37.95.45 20.3.15.45-.2.4 9.3.3 7.5.1 14.45-.05 17.8 0 20.6q0 2.35.1 4.3 1 10.05 9.7 13.15 2.15.5 4.15 1 25.9 6.05 37.4.2Q61.55 34 62.15 17.2v-1.1-.15h4.95v1.1q.6 16.8 10.8 22.05 11.5 5.85 37.4-.2 2.05-.5 4.15-1 8.7-3.1 9.7-13.15z" id="AccGla004__Symbol_74_0_Layer0_0_FILL"/><path fill="#000000" d="M192.2 7.7l-.05-5.55L161.85.9Q152.7-.25 136.6.05q-16.1.3-26.6 3.5-3.7 1.1-6.55 1.8-3.6 1.35-7.35 1.35-3.75 0-7.35-1.35-2.85-.7-6.55-1.8Q71.7.35 55.6.05 39.5-.25 30.35.9L.05 2.15 0 7.7q16.15 1.25 23.45 2.65 5.15 1.3 5.85 6.5.05 1 .1 2.05.2 3.15.7 6.35 1.25 11.45 9.5 14.55.85.3 1.65.55Q62.8 45.6 75.8 43.5q1.15-.2 2.15-.5 9.35-2.85 12.85-9.3l.25-.45q.1-.3.25-.6 1.75-3.85 3.05-9.3.25-1.1.5-2.25l-.1.3q.25-1.9 1.35-2.1 1.1.2 1.35 2.1l-.1-.3q.25 1.15.5 2.25 1.3 5.45 3.05 9.3.15.3.25.6l.25.45q3.5 6.45 12.85 9.3 1 .3 2.15.5 13 2.1 34.55-3.15.8-.25 1.65-.55 8.25-3.1 9.5-14.55.5-3.2.7-6.35.05-1.05.1-2.05.7-5.2 5.85-6.5 7.3-1.4 23.45-2.65m-42.3 30.55q-2 .5-3.9.95-24.55 5.8-35.45.2-9.65-5-10.2-21.05V17.3q0-1.6 1-4.65 1.05-3.1 2.85-4.05 1.9-1 2.55-1.2.7-.3 2.45-.8 14.05-4.2 30.75-4.5 18.8-.35 18.85 8.75.1-1.75.3 4.9.15 3.2.1 5.85 0 2.25-.1 4.1-.95 9.6-9.2 12.55M83 6.6q1.75.5 2.45.8.65.2 2.55 1.2 1.8.95 2.85 4.05 1 3.05 1 4.65v1.05Q91.3 34.4 81.65 39.4q-10.9 5.6-35.45-.2-1.9-.45-3.9-.95-8.25-2.95-9.2-12.55-.1-1.85-.1-4.1-.05-2.65.1-5.85.2-6.65.3-4.9.05-9.1 18.85-8.75 16.7.3 30.75 4.5z" id="AccGla004__Symbol_26_0_Layer0_0_FILL"/></defs><use xlink:href="#AccGla004__Symbol_95_0_Layer0_0_FILL" xmlns:xlink="http://www.w3.org/1999/xlink" transform="translate(191.3 159.75)" id="AccGla004__col2n"/><use xlink:href="#AccGla004__Symbol_74_0_Layer0_0_FILL" xmlns:xlink="http://www.w3.org/1999/xlink" transform="translate(127.9 146.75)" id="AccGla004__col2l"/><use xlink:href="#AccGla004__Symbol_26_0_Layer0_0_FILL" xmlns:xlink="http://www.w3.org/1999/xlink" transform="translate(96.4 145.9)" id="AccGla004__col1n"/></g></g><g transform=""><g transform=""><defs><path fill="#252525" d="M65.05 28.95q.6-.1 1.2-.25l-2 .4q.4-.05.8-.15m60.3-.25q.6.15 1.2.25.4.1.8.15l-2-.4m-53.95-.8l.4-.05h-.1q-.15 0-.3.05m48.5-.05h-.1l.4.05q-.15-.05-.3-.05m65.8 57.1q-5.45-18.8-15.6-31.35-2.3-3.05-5.2-5.75-17.9-15.45-45.1-20l.35-1.45.05-.35-.3 1.3 1.25-7.25q.45-2.4.8-4.75 1.3-7.65-4.35-11.5-1.1-.7-2.5-1.25-1.7-.6-3.5-1-17-3.2-31.6 0-1.85.4-3.5 1-1.4.55-2.5 1.25-5.65 3.85-4.35 11.5.35 2.35.8 4.75l1.35 7.75q-27.2 4.55-45.1 20-2.9 2.7-5.2 5.75Q11.35 66.15 5.9 84.95q-.2.6-.35 1.2l-.1.25Q-.15 108.5 0 122.1h.1l8.85 9.15q7.4-33.35 27.6-61.4Q55.1 46.6 74.8 50.55q4.75 1 9.65 3.6.1 0 .1.1 6.1 3.05 10.45 8.6.4.4.8.95.4-.55.8-.95 4.35-5.55 10.45-8.6 0-.1.1-.1 4.9-2.6 9.65-3.6 19.7-3.95 38.25 19.3 20.2 28.05 27.6 61.4l8.85-9.15h.1q.15-13.6-5.45-35.7l-.1-.25q-.15-.6-.35-1.2z" id="HaiSpe042__Symbol_174_0_Layer0_0_FILL"/><path fill="#121212" d="M71.4 27.9l.4-.05h-.1q-.15 0-.3.05m114.3 57.05q-5.45-18.8-15.6-31.35-2.3-3.05-5.2-5.75-17.9-15.45-45.1-20l.35-1.45v-.15l-.25 1.1 1.25-7.25q.45-2.4.8-4.75 1.3-7.65-4.35-11.5-1.1-.7-2.5-1.25-1.7-.6-3.5-1-17-3.2-31.6 0-1.85.4-3.5 1-1.4.55-2.5 1.25-5.65 3.85-4.35 11.5.35 2.35.8 4.75l1.25 7.25-.1-.45.2.95q-27.2 4.55-45.1 20-2.9 2.7-5.2 5.75Q11.35 66.15 5.9 84.95q-.2.6-.35 1.2l-.1.25Q-.15 108.5 0 122.1h.1q0-.95.1-1.85 1.65-27.3 14.1-48.75 11.5-23.25 41.2-35.1 8.45-3 16.85-4.7.15-.05.25-.05 3.85-.8 7.7-1.35 7.75-1.1 15.5-1.1t15.5 1.1q3.85.55 7.7 1.35.1 0 .25.05 8.4 1.7 16.85 4.7 29.7 11.85 41.2 35.1 12.45 21.45 14.1 48.75.1.9.1 1.85h.1q.15-13.6-5.45-35.7l-.1-.25q-.15-.6-.35-1.2m-73.4-77.9q1.45 3.2 1.45 6.9 0 1.2-.1 2.45l-1.75 10.25q-2.45-.3-4.85-.5-5.3-.45-10.45-.55H95q-5.15.1-10.45.55-2.4.2-4.85.5L77.95 16.4q-.1-1.25-.1-2.45 0-3.7 1.45-6.9.05-.15.15-.3 1-1.9 4.25-2.95 12.1-1.95 24.2 0 3.25 1.05 4.25 2.95.1.15.15.3z" id="HaiSpe042__Symbol_106_0_Layer0_0_FILL"/><path fill="#480000" d="M49.45 9.2l.45-4.8q-5.85-1.75-9.8-2.65-12.45-2.9-26-.95-1.15.2-2.25.5-.65.1-1.2.2-1.45.25-2.85.6-3.95.8-7.8 2.1l.65 4.9v.1Q7.3 8 13.8 7.45 19.1 7 24.25 6.9q3.45 0 6.95.1 1.1 0 2.2.1 1.55 0 2.9.15 2.9.2 5.6.55 2.7.35 7.55 1.4z" id="HaiSpe042__Symbol_32_0_Layer0_0_FILL"/><path fill="#000000" d="M31.25 7L3.45 0Q2.3.2 1.2.5.55.6 0 .7l22.75 5.6q1.55 0 2.9.15 2.9.2 5.6.55z" id="HaiSpe042__Symbol_10_0_Layer0_0_FILL"/></defs><use xlink:href="#HaiSpe042__Symbol_174_0_Layer0_0_FILL" xmlns:xlink="http://www.w3.org/1999/xlink" transform="translate(96.7 29)" id="HaiSpe042__col1n"/><use xlink:href="#HaiSpe042__Symbol_106_0_Layer0_0_FILL" xmlns:xlink="http://www.w3.org/1999/xlink" transform="translate(96.7 29)" id="HaiSpe042__col1d"/><use xlink:href="#HaiSpe042__Symbol_32_0_Layer0_0_FILL" xmlns:xlink="http://www.w3.org/1999/xlink" transform="translate(167.45 47.7)" id="HaiSpe042__col2n"/><use xlink:href="#HaiSpe042__Symbol_10_0_Layer0_0_FILL" xmlns:xlink="http://www.w3.org/1999/xlink" transform="translate(178.1 48.5)" id="HaiSpe042__col2s"/></g></g><g transform=""><g transform=""><defs><path fill="#000000" d="M1.5 19.15L34 2.8 32.4 0 0 16.25l1.5 2.9M93 18.3l.55-3.15-35.7-6.2-.75 3.2 35.85 6.15H93z" id="FacBro002__Symbol_2_0_Layer0_0_FILL"/></defs><use xlink:href="#FacBro002__Symbol_2_0_Layer0_0_FILL" xmlns:xlink="http://www.w3.org/1999/xlink" transform="translate(145.55 119.4)" id="FacBro002__col1n"/></g></g><g transform=""><g transform=""><defs><path fill="#B1B1B1" d="M148.95 289.1l-.05.05q.15.1.35.3l.4.15v.05l.5.2q.15.05.7.25.65.2.75.25.25.1.25.35 0 .1-.1.25-.15.3-.6.75-.2.1-.55.35-.15.15-.25.35-.05.05-.05.15.1.2.45.5t.75.45q.45.25 1.15.1.1-.05 1.5-.45v-.05q-.15.05-.3-.05-.65-.2-.95-.3-.25-.15-.3-.35-.1-.2-.15-.2-.05-.05 0-.25l.05-.15q.1-.15.3-.3.15-.05.5-.25.25-.1.3-.25-1.2-.2-1.7-1.2-.25-.5-.3-1-.25-.05-1.3.1-1.1.2-1.35.2m-9.1-4.35q-.25.45-.1 1.85.1 1.45.4 1.6.35.15.6 0 .1-.05.45-.45.55-.65 1.65-.2.6.3.95.3.65 0 1-.75.1-.15-.55-.85-.65-.6-.5-.9.05-.15.75-.65.15-.1.25-.15v-.05q-.05 0-.05-.05l-.1-.1q-1.3-.8-2.55-1.65-.1.15-.2.35-.25.45-.05.75.1.25.7.7l-.35.7q-.55.45-1 .4-.15 0-.7-.25-.45-.3-.6-.6m-7.65-8.45q-.4-.35-.45-.9-1.15-.85-2.45-1.8.2.45.15 1-.05.55.2 1 .15.45 1.05.7.85.3 1.4.9.4.5.25.9-.15.4-.6 1.2-.3.6.35.9 1.65-.15 2.05-.2-.35-.25-.55-.6-.15-.3-.1-.5l.35-1.2q-.05-.45-.3-.6-.95-.4-1.35-.8m-11.55-2.35q.05 0 .15.05.55.15.75.25.5.2.4.85-.1.3-.45 1-.25.6-.95 1.7-.2.2-.3.45.15-.2.4-.35.25-.35.6-.7 1.95-2.05 2.6-3.2-2.25-.5-1.65-.8.35-.2.95-.45.15-.15.6-.35.25-.2.6-.35.15-.1.25-.1.7-.4 1.2-.8-.45.15-1.6.5-1.9.5-2.3.6-.1.1-.35.15-.45.05-1.2.2-.7.1-1.2.6.3.35.6.5.2.05.9.25M119 280.9h.1q1.2 0 2.4-.05.128-.012.25-.05.438 1.793 4.3 4.9 3.15 2.6 6.7 4.7 2.85 1.7 8.45 4 7.55 3.15 11.05 3.15 1 0 1.6-.35.35-.21.45-.45l.05.05q2.55 2.25 2.85 2.4.5.25.65.25.45.15.8.05-.95-.9-1.2-2-.2-.65-.25-2.4 0-.4-.4-1.95-.1-.35-.05-1l-.05.05q-.25.95-.6 1.25-.25.35-.7.35-.55.1-1 .2-.55.7-1.1 1.6-.21.325-.45.6-.349.441-.75.75-.143.095-.25.15l-.1.05q-.45 0-.75-.15-.1 0-.15-.05-.05-.15-.05-.35-.076-.246-.15-.5-.088-.358-.15-.7-.6-2.5-1.6-2.95-.1-.1-.7-.25-.55-.15-.7-.2-.35-.2-.8-.8-.5-.6-.95-.8-.35-.15-1.7.1-1.35.3-1.8.1-.55-.25-.75-1.25l-.1-.1q-1.05.75-1.45.9-.35.25-.85.35-.044.044-.05.1h-.1q-.45.05-.95.2h-.25q-.25.1-.45.2-.295.07-.55.1-.387.135-.55.2.047-.205.1-.4.476-2.175.75-4.05.05-.25.05-.45.15-.35.25-.65.1-.55.15-1-.45-.05-1-.05-.35-.1-.6-.1-.05 0-.05.05-2.05-.25-3.05-.7-.6-.3-.85-.6-.15-.2-.2-.4-.35-.95-.65-1.5-1.05.05-1.65 0-.6-.05-.8-.15-.2-.1-.1-1.5.1-1.05 0-1.7-2.1.45-3.6.85-.35.05-.6.15-.1 0-1.45.55-.258.105-.55.2-.298.118-.65.2-1.106.412-2.7.85z" id="ObjFoo045__Layer16_1_FILL"/><path fill="#830000" d="M46.15 16.95q-.25.15-.5.2-.2.05-.3.1l-.1.05q-.45 0-.75-.15-.1 0-.15-.05-.1-.1-.2-.3-.25-.4-.55-.8-.8-1.05-2.65-2.5-1.75-1.45-1.85-1.25-.05-.05-.15-.05-.35 0-1.7.15-.95.15-1.6.05-.5-.05-.8-.2-.35-.15-.6-.65-.3-.5-.75-.7-.3-.15-.9-.15-.05 0-.05.05h-.1q-.45.05-.95.2h-.25q-.25.1-.45.2-.85.2-1.1.3 0-.05-.05-.05-.15-.05-.2-2.9 0-.9.05-1.6-.05-.7-.05-1.15-1.05-.15-2.6-.3-1.5-.1-2.3-.4-.75-.25-1-1.5-1.7-.05-2.85-.2-.05-1 0-2.1.05-.75.1-1.25l-3 .6q-.1.05-.15.1-.25.05-.55.05V.8L15 1l-2.95 6.3q.1 0 .2.05 2.25 1 3.95 3 0 .05.05.1.15.15.3.35 2.85 4.4 2.35 9.9-.1.75-.25 1.5l-.1.55q-.9 3.4-2.6 5.1-.75.7-1.6 1.1l-.2.1h-.05q-3.55 1.35-6.45.45H7.5q-.25-.1-.5-.25-2.15-1.05-3.95-2.85L0 32.8l33.05 15.6 14.8-31.45q-.15-.15-.35-.3-.25-.15-1.35.3z" id="ObjFoo045__Symbol_84_0_Layer0_0_FILL"/><path fill="#480000" d="M2.6 31.6l1.85-3.95q-.7-.6-1.4-1.25L0 32.8l33.05 15.6-.75-2.85L2.6 31.6m28.65-20.65q-.25.1-.45.2-.85.2-1.1.3 0-.05-.05-.05-.15-.05-.2-2.9 0-.9.05-1.6-.05-.7-.05-1.15-1.05-.15-2.6-.3-1.5-.1-2.3-.4-.75-.25-1-1.5-1.7-.05-2.85-.2-.05-1 0-2.1.05-.75.1-1.25l-3 .6q-.1.05-.15.1-.25.05-.55.05V.8L15 1l-2.95 6.3q.1 0 .2.05.75.35 1.45.75l2.7-5.8v-.05q.2-.05.4-.05.2-.05.35-.1 1.3-.25 1.85 0t.4 1.4q-.15 1.15.3 1.4 1.15.55 2.45.5.2-.05.4-.05.25.1.8.2l.55.25.3.3.25.35q.45.45.85.65l.25.1q.5.1.9.2.25.05.75.1.7.05 1.1.05l.65 2.6q.75 2.75 1.4 3.05.75.35 1.8-.05.45-.2.7-.3l-.25-2.15q-.05 0-.05.05h-.1q-.45.05-.95.2h-.25m14.9 6q-.25.15-.5.2-.2.05-.3.1l-.1.05q-.45 0-.75-.15-.1 0-.15-.05-.1-.1-.2-.3-.25-.4-.55-.8-.8-1.05-2.65-2.5-1.75-1.45-1.85-1.25-.05-.05-.15-.05-.35 0-1.7.15-.95.15-1.6.05.05 1.25.05 2 .1-.05.25-.05.45.1.75.05v.05q.5 0 1-.05 1.45-.15 2.15.2.25.1.6.4l3.3 4.5 4.1-2.55q-.15-.15-.35-.3-.25-.15-1.35.3z" id="ObjFoo045__Symbol_85_0_Layer0_0_FILL"/><path fill="red" d="M138.8 325.4l.75 2.85 14.8-31.45-3 1.95-12.55 26.65z" id="ObjFoo045__Layer12_0_FILL"/><path fill="#190000" d="M6.7 15.05q.2 1-.15 1.7-.35.85-1.25 1.3-.4.15-.8.25-.1 0-.1.05-1.65.05-3.05-.75-.6.4-1.2.7-.1.05-.15.1 1.05.75 2.5 1.15 1.5.4 2.6.05 1.35-.45 1.95-1.7.2-.45.25-.75.1-.4.1-.7-.05-.2-.05-.35-.15-.4-.65-1.05m14.8-11.3q0-.75-.05-2-.5-.05-.8-.2-.35-.15-.6-.65-.3-.5-.75-.7-.3-.15-.9-.15l.25 2.15q.15.5.05 1.15-.1.85-.6 1.85-1 2.15-4.1 2.8-2.85.7-5.5-.2.9-.35 1.75-1 1.65-1.15 2.35-2.55.5-1.15.35-2.15Q12.8.85 11.5.25q-.9-.4-1.5-.15-.5.2-.75.75-.4.8.3 1.2 0 .05.05.05l.05.05.05-.05q-.2-.35-.05-.75.2-.4.55-.55.4-.15.9.1t.8.75q.4.7.1 1.4-1.35 2.85-4.25 3.7-.8.25-1.9.4-.5-.15-1.15-.2.1.75.1 1.6h1.45q.05 0 .15.05.05.05.15.05.05 0 .05.05.2 0 .5.15.9.25 2.55.9 4.15 1.6 6.15 1.5 1.7-.1 3.05-1.25 2.75-2.5 2.65-6.25z" id="ObjFoo045__Symbol_86_0_Layer0_0_FILL"/><path fill="#583E2E" d="M22.45 5.25V5.2l-11-5.15L11.4 0 0 24.15l1.9 1.65q.25.2.5.35.3.2.55.4.1.1.2.15h.05q1.3.95 2.45 1.8 1.4 1 2.7 1.95.1.15.25.2.2.25.5.4.4.35.8.65.75.5 1.5 1.1.1 0 .15.05 1.35.9 2.9 2 .75.5 1.5.95 1.25.85 2.55 1.65l.1.1q0 .05.05.05.75.5 1.5.95l1.6 1q1.85 1.15 3.75 2.3.25.2.5.3 1.6 1 2.95 1.8 1.6.95 1.7 1.1L39.3 26.7h.05l5.25-11.05-11.1-5.2v-.05L22.45 5.25z" id="ObjFoo045__Symbol_18_0_Layer0_0_FILL"/><path fill="#38251A" d="M1.85 24.55l-.9-2.4-.95 2 1.45 1.25.4-.85m27.3-.65l-.9-2.45-5.2 11.05-.95-2.65-7.6-3.55 3.6-7.6-.9-2.45L12 27.3l-.95-2.65-7.6-3.55 3.6-7.6-.9-2.45-5.2 11.1 11 5.2L9.9 31.7q.75.5 1.5 1.1l1.45-3.05-.85-2.4 11 5.2-2.85 6 1.6 1 2.2-4.6h-.05l-.85-2.4 11.05 5.2-.95-2.7-7.6-3.55 3.6-7.6m4.35-13.45v-.05l-5.2 11.05-1-2.6h.05l-7.6-3.6L23.3 7.6l-.85-2.35V5.2l-5.2 11-.95-2.55h.05l-7.6-3.6L12.3 2.4h-.05l-.8-2.35L11.4 0 6.15 11.05l11.05 5.2 11.05 5.2L39.3 26.7h.05l-1-2.65h.05l-7.6-3.6 3.55-7.65-.85-2.35z" id="ObjFoo045__Symbol_7_0_Layer0_0_FILL"/><path fill="#705240" d="M11.05 27.3l.85 2.4 7.65 3.55-2 4.15.1.1q0 .05.05.05.75.5 1.5.95l2.85-6-11-5.2M0 22.1l.9 2.4 7.6 3.55-1.1 2.35q.1.15.25.2.2.25.5.4.4.35.8.65L11 27.3 0 22.1M10.5 0l.8 2.35h.05l7.6 3.6-3.55 7.65h-.05l.95 2.55 5.2-11L10.5 0m26.95 24h-.05l1 2.65 5.25-11.05-11.1-5.2.85 2.35 7.6 3.6L37.45 24m-14.5 10.9H23l7.6 3.55L28 43.9q1.6.95 1.7 1.1l3.45-7.3-11.05-5.2.85 2.4M6.1 13.45L13.7 17l-3.6 7.6.95 2.65 5.2-11.05L5.2 11l.9 2.45m10.15 2.75l.9 2.45 7.6 3.55-3.6 7.6.95 2.65 5.2-11.05-11.05-5.2m11.05 5.2l.9 2.45 7.6 3.55-3.6 7.6.95 2.7 5.2-11.05L27.3 21.4M21.5 5.2l.85 2.35 7.6 3.6-3.55 7.65h-.05l1 2.6 5.2-11.05L21.5 5.2z" id="ObjFoo045__Symbol_4_0_Layer0_0_FILL"/><g id="ObjFoo045__Layer16_0_FILL"><path fill="#CD0000" d="M118.65 303.2v-.35h-.05q0 .15.05.35z"/><path fill="#999" d="M119.1 280.9h-.1q0 .05.05.05l.05-.05z"/><path fill="#E9E9E9" d="M120.25 278.25l-.1.1q0 .05-.35.8-.45.95-.8 1.75.7-.2 1.35-.35h.25q.85 0 1.95-.55.3-.1 2.75-.45.5-.1 2.25-.4.3-.05.5-.1l-.1 1.7q0 .85.1 1.05.3.75 1.6.75.6 0 1.05-.05.15.3.35.65.8 1.25 1.4 1.4.15 0 3.6.55l.3.1v.1q-.15.6-.15 2l.1 1.8q0 .1-.1.85 0 .4.2.6-.05.15-.1.35l-.1.4q.15-.05.6-.15.2-.1.5-.15.2-.1.45-.2h.25q.5-.15.95-.2h.1q0-.05.05-.1.15-.05.35-.1.05.05.15.1.8.4 1.25.4l2-.15q1.45 0 3.5 1 1.6.7 2.45 1.4.75.6 1.35 2.3.35.9.65 1.25 0 .15.05.25.05.05.15.05.3.15.75.15l.1-.05q.1-.05.25-.15.1-.1.2-.15.9-.15 2.5-1.8 1.2-.4 1.4-.85.15-.35.4-.75.05-.15.05-.5 0-.2-.05-.35.05-.15.1-.35v-.1q0-.05.05-.15 0-.05-.1-.1v-.15q0-1.5-5.3-6.25-4.65-4.25-6.25-5.1-3.6-3.3-6.3-5.4-5.2-3.95-11.75-3.95-.6 0-.9.1l-.05-.05-.1-.05-.1.1q-.05.05-.1.05-.15.15-.35.25h-.05q-.2 0-2.1.95-2.05.6-2.05 1.15 0 .3.7.5.35.15.95.3-.55.7-1.2 1.65-1.05 1.5-1.05 1.95-.25.15-.4.35m3.2-3.65h.05q-.048.048-.05.1v-.1m17.2 13.6l.05.05h-.05v-.05m13.5 4.9v.05q-.05 0-.05-.05h.05m0 1.25q.1-.2.25-.35.183-.046.45-.05-.3.15-.7.4z"/></g></defs><use xlink:href="#ObjFoo045__Layer16_0_FILL" xmlns:xlink="http://www.w3.org/1999/xlink"/><use xlink:href="#ObjFoo045__Layer16_1_FILL" xmlns:xlink="http://www.w3.org/1999/xlink"/><use xlink:href="#ObjFoo045__Symbol_84_0_Layer0_0_FILL" xmlns:xlink="http://www.w3.org/1999/xlink" transform="translate(106.5 279.85)" id="ObjFoo045__col1n"/><use xlink:href="#ObjFoo045__Symbol_85_0_Layer0_0_FILL" xmlns:xlink="http://www.w3.org/1999/xlink" transform="translate(106.5 279.85)" id="ObjFoo045__col1d"/><use xlink:href="#ObjFoo045__Layer12_0_FILL" xmlns:xlink="http://www.w3.org/1999/xlink"/><use xlink:href="#ObjFoo045__Symbol_86_0_Layer0_0_FILL" xmlns:xlink="http://www.w3.org/1999/xlink" transform="translate(120.7 290.5)" id="ObjFoo045__col1s"/><use xlink:href="#ObjFoo045__Symbol_18_0_Layer0_0_FILL" xmlns:xlink="http://www.w3.org/1999/xlink" transform="translate(126.1 246.9)" id="ObjFoo045__col2n"/><use xlink:href="#ObjFoo045__Symbol_7_0_Layer0_0_FILL" xmlns:xlink="http://www.w3.org/1999/xlink" transform="translate(126.1 246.9)" id="ObjFoo045__col2d"/><use xlink:href="#ObjFoo045__Symbol_4_0_Layer0_0_FILL" xmlns:xlink="http://www.w3.org/1999/xlink" transform="translate(127.05 246.95)" id="ObjFoo045__col2l"/></g></g><g transform=""><g transform=""><defs><path fill="#5D342C" d="M48.7.05v15.2q-3.25 26.25-28.6 28.6H.15q0 .15-.05.8-.1.6-.1.95.05.1.05.25H20.3Q47.25 43.4 50.7 15.5V0q-.1.05-.15.1H48.8q-.05-.05-.1-.05z" id="ObjMus008__Symbol_94_0_Layer0_0_FILL"/><path fill="#621F00" d="M17.3 80.5q-2.95-2.05-7.1-2.05-2.3 0-4.2.65-1.55.5-2.9 1.4Q0 82.6 0 85.7q0 3.05 3.1 5.2v-.05q1.35.95 2.9 1.5 1.9.6 4.2.6 4.15 0 7.1-2.05 2.35-1.65 2.95-3.8v-.15q0-.15-.05-.25 0-.35.1-.95.05-.65.05-.8v-.05q-.35-2.6-3.05-4.4M68.6 0Q66.95.2 67 2.3v38.1q-.15 1.45-.3 2.95v.15q-.25 2.6 2.2 2.7v-5.05q.05 0 .1.05h1.75l1.45-1.45h1.4V7.15h-1.1l-.05-.05q-.6-.55-1.25-1.05l-.45-3.85Q70.55 0 68.6 0m2.3 36v.1h-.05q.048-.048.05-.1z" id="ObjMus008__Symbol_25_0_Layer0_0_FILL"/></defs><use xlink:href="#ObjMus008__Symbol_94_0_Layer0_0_FILL" xmlns:xlink="http://www.w3.org/1999/xlink" transform="translate(238.7 173.5)" id="ObjMus008__col1n"/><use xlink:href="#ObjMus008__Symbol_25_0_Layer0_0_FILL" xmlns:xlink="http://www.w3.org/1999/xlink" transform="translate(218.5 132.4)" id="ObjMus008__col2n"/></g></g></svg>