<?xml version="1.0" encoding="utf-8"?>
<!-- Svg Vector Icons : http://www.onlinewebfonts.com/icon -->
<!DOCTYPE svg PUBLIC "-//W3C//DTD SVG 1.1//EN" "http://www.w3.org/Graphics/SVG/1.1/DTD/svg11.dtd">
<svg version="1.1" xmlns="http://www.w3.org/2000/svg" xmlns:xlink="http://www.w3.org/1999/xlink" x="0px" y="0px" viewBox="0 0 1000 1000" enable-background="new 0 0 1000 1000" xml:space="preserve">
<metadata> Svg Vector Icons : http://www.onlinewebfonts.com/icon </metadata>
<g><path d="M500,10C229.4,10,10,229.4,10,500c0,270.6,219.4,490,490,490c270.6,0,490-219.4,490-490C990,229.4,770.6,10,500,10z M788.7,332.9h-15.2c-16.8,0-30.4,13.6-30.4,30.4v265.9c0,16.8,13.6,30.4,30.4,30.4h15.2v68.4H579.8v-68.4h41.8V359.9L519,727.9h-79.8l-102.6-368v299.6h41.8v68.4H203.7v-68.4h15.2c16.8,0,30.4-13.6,30.4-30.4V363.3c0-16.8-13.6-30.4-30.4-30.4h-15.2v-68.4H424l72.2,269.7l72.2-269.7h220.3L788.7,332.9L788.7,332.9z"/></g>
</svg>