<svg xmlns="http://www.w3.org/2000/svg" xmlns:xlink="http://www.w3.org/1999/xlink" width="73.074" height="68.665" viewBox="0 0 73.074 68.665">
  <defs>
    <linearGradient id="linear-gradient" x1="0.409" y1="0.266" x2="1" y2="0.43" gradientUnits="objectBoundingBox">
      <stop offset="0" stop-color="#fbc707"/>
      <stop offset="1" stop-color="#a04636"/>
    </linearGradient>
    <linearGradient id="linear-gradient-2" x1="0.5" y1="0.616" x2="0.174" y2="0.542" gradientUnits="objectBoundingBox">
      <stop offset="0" stop-color="#ecb20f"/>
      <stop offset="1" stop-color="#a04636"/>
    </linearGradient>
    <linearGradient id="linear-gradient-3" x1="1.423" y1="3.213" x2="1.551" y2="3.213" gradientUnits="objectBoundingBox">
      <stop offset="0" stop-color="#a04636"/>
      <stop offset="1" stop-color="#fbc707"/>
    </linearGradient>
    <clipPath id="clip-path">
      <path id="Path_21187" data-name="Path 21187" d="M-599.124-322.349l13.836,8.891a13.482,13.482,0,0,1-1.391-8.114,22.14,22.14,0,0,1,4.954-8.329c2.959-2.9,7.787-4.549,11.778-2.842,4.757,2.032,5.3,8.538,4.555,12.982a14.908,14.908,0,0,1-1.458,4.475l-13.834-8.89a13.477,13.477,0,0,1,1.39,8.112,22.118,22.118,0,0,1-4.952,8.331c-2.959,2.9-7.787,4.547-11.78,2.84-4.755-2.032-5.294-8.536-4.553-12.98a14.893,14.893,0,0,1,1.457-4.476ZM-609.237-342.4l.008-.021-.034.065a22.694,22.694,0,0,0-1.43,2.863c-5.894,12.1-8.955,22.447-8.826,30.84a24.669,24.669,0,0,0,14.922,22.45c6.229,2.639,13.764,2.341,22.9-1.564A53.03,53.03,0,0,0-565.257-300.8l8.511,5.587.01-.019-.008.021.034-.065a22.867,22.867,0,0,0,1.43-2.865c5.9-12.1,8.955-22.447,8.826-30.84a24.665,24.665,0,0,0-14.922-22.449c-6.229-2.641-13.764-2.341-22.9,1.564a52.937,52.937,0,0,0-16.415,13l-.027.029-8.51-5.585-.011.019" transform="translate(619.524 353.15)" fill="none"/>
    </clipPath>
    <clipPath id="clip-path-2">
      <path id="Path_21188" data-name="Path 21188" d="M-570.827-327.837l22.374,14.379c-4.786-9.326,2.422-19.769,11.51-22.3a15.813,15.813,0,0,1,14.341,2.326c5.946,4.52,7.387,11.479,7.019,18.519a73.434,73.434,0,0,1-4.325,19.706c6.852-13.358,10.428-24.706,10.291-33.766a24.67,24.67,0,0,0-14.924-22.453c-6.227-2.639-13.762-2.339-22.9,1.565-10.507,5.224-17.315,13.357-23.387,22.026" transform="translate(570.827 353.15)" fill="url(#linear-gradient)"/>
    </clipPath>
    <clipPath id="clip-path-3">
      <path id="Path_21189" data-name="Path 21189" d="M-558.311-276.5l-22.374-14.379c4.786,9.326-2.422,19.769-11.51,22.305a15.826,15.826,0,0,1-14.341-2.326c-5.946-4.52-7.385-11.481-7.018-18.519a73.418,73.418,0,0,1,4.325-19.708c-6.852,13.36-10.428,24.706-10.291,33.768A24.668,24.668,0,0,0-604.6-252.907c6.227,2.639,13.762,2.341,22.9-1.564,10.507-5.224,17.315-13.356,23.387-22.028" transform="translate(619.524 309.125)" fill="url(#linear-gradient-2)"/>
    </clipPath>
  </defs>
  <g id="Group_8960" data-name="Group 8960" transform="translate(19046 21796.447)">
    <g id="g5368" transform="translate(-19046 -21796.447)">
      <g id="g5370" transform="translate(0 0)">
        <g id="g5376">
          <path id="path5384" d="M-599.124-322.349l13.836,8.891a13.482,13.482,0,0,1-1.391-8.114,22.14,22.14,0,0,1,4.954-8.329c2.959-2.9,7.787-4.549,11.778-2.842,4.757,2.032,5.3,8.538,4.555,12.982a14.908,14.908,0,0,1-1.458,4.475l-13.834-8.89a13.477,13.477,0,0,1,1.39,8.112,22.118,22.118,0,0,1-4.952,8.331c-2.959,2.9-7.787,4.547-11.78,2.84-4.755-2.032-5.294-8.536-4.553-12.98a14.893,14.893,0,0,1,1.457-4.476ZM-609.237-342.4l.008-.021-.034.065a22.694,22.694,0,0,0-1.43,2.863c-5.894,12.1-8.955,22.447-8.826,30.84a24.669,24.669,0,0,0,14.922,22.45c6.229,2.639,13.764,2.341,22.9-1.564A53.03,53.03,0,0,0-565.257-300.8l8.511,5.587.01-.019-.008.021.034-.065a22.867,22.867,0,0,0,1.43-2.865c5.9-12.1,8.955-22.447,8.826-30.84a24.665,24.665,0,0,0-14.922-22.449c-6.229-2.641-13.764-2.341-22.9,1.564a52.937,52.937,0,0,0-16.415,13l-.027.029-8.51-5.585-.011.019" transform="translate(619.524 353.15)" fill-rule="evenodd" fill="url(#linear-gradient-3)"/>
        </g>
      </g>
    </g>
    <g id="g5386" transform="translate(-19046 -21796.447)">
      <g id="Group_8955" data-name="Group 8955" transform="translate(0 0)">
        <g id="Group_8954" data-name="Group 8954" clip-path="url(#clip-path)">
          <g id="g5388" transform="translate(5.354 10.726)">
            <path id="path5394" d="M-460.4-246.553l-18.4-12.074c4.648-3.188,8.683-6.074,9.75-12.477.741-4.444.2-10.95-4.555-12.982-3.991-1.707-8.819-.056-11.778,2.84-4.429,4.335-5.661,11.042-6.774,13.693.591-10.767,6.846-17.932,12.089-20.167,5.629-2.4,15.042-.734,19.568,3.509,3.106,2.913,4.95,9.541,5.038,15.8-.321,7.383-1.51,16.145-4.943,21.858" transform="translate(517.825 293.767)" fill="#63363c" fill-rule="evenodd"/>
            <path id="path5396" d="M-592.6-309.117l8.511,5.585a105.271,105.271,0,0,0-6.946,9l8.538,5.487a14.9,14.9,0,0,0-1.456,4.476c-.742,4.444-.2,10.948,4.553,12.982,3.993,1.705,8.821.054,11.78-2.842,4.429-4.335,5.661-11.04,6.774-13.691-.591,10.765-6.844,17.932-12.089,20.167-5.629,2.4-15.042.732-19.568-3.509-3.108-2.913-4.95-9.541-5.038-15.8.321-7.384,1.51-16.147,4.943-21.858" transform="translate(597.545 309.117)" fill="#63363c" fill-rule="evenodd"/>
          </g>
        </g>
      </g>
    </g>
    <g id="g5398" transform="translate(-19034.139 -21796.447)">
      <g id="Group_8957" data-name="Group 8957" transform="translate(0 0)">
        <g id="Group_8956" data-name="Group 8956" clip-path="url(#clip-path-2)">
          <g id="g5400" transform="translate(-11.862 0)">
            <g id="g5406">
              <g id="g5412">
                <path id="path5420" d="M-599.124-322.349l13.836,8.891a13.482,13.482,0,0,1-1.391-8.114,22.14,22.14,0,0,1,4.954-8.329c2.959-2.9,7.787-4.549,11.778-2.842,4.757,2.032,5.3,8.538,4.555,12.982a14.908,14.908,0,0,1-1.458,4.475l-13.834-8.89a13.477,13.477,0,0,1,1.39,8.112,22.118,22.118,0,0,1-4.952,8.331c-2.959,2.9-7.787,4.547-11.78,2.84-4.755-2.032-5.294-8.536-4.553-12.98a14.893,14.893,0,0,1,1.457-4.476ZM-609.237-342.4l.008-.021-.034.065a22.694,22.694,0,0,0-1.43,2.863c-5.894,12.1-8.955,22.447-8.826,30.84a24.669,24.669,0,0,0,14.922,22.45c6.229,2.639,13.764,2.341,22.9-1.564A53.03,53.03,0,0,0-565.257-300.8l8.511,5.587.01-.019-.008.021.034-.065a22.867,22.867,0,0,0,1.43-2.865c5.9-12.1,8.955-22.447,8.826-30.84a24.665,24.665,0,0,0-14.922-22.449c-6.229-2.641-13.764-2.341-22.9,1.564a52.937,52.937,0,0,0-16.415,13l-.027.029-8.51-5.585-.011.019" transform="translate(619.524 353.15)" fill-rule="evenodd" fill="url(#linear-gradient)"/>
              </g>
            </g>
          </g>
        </g>
      </g>
    </g>
    <g id="g5422" transform="translate(-19046 -21785.723)">
      <g id="Group_8959" data-name="Group 8959" transform="translate(0 0)">
        <g id="Group_8958" data-name="Group 8958" clip-path="url(#clip-path-3)">
          <g id="g5424" transform="translate(0 -10.724)">
            <g id="g5430">
              <g id="g5436">
                <path id="path5444" d="M-599.124-322.349l13.836,8.891a13.482,13.482,0,0,1-1.391-8.114,22.14,22.14,0,0,1,4.954-8.329c2.959-2.9,7.787-4.549,11.778-2.842,4.757,2.032,5.3,8.538,4.555,12.982a14.908,14.908,0,0,1-1.458,4.475l-13.834-8.89a13.477,13.477,0,0,1,1.39,8.112,22.118,22.118,0,0,1-4.952,8.331c-2.959,2.9-7.787,4.547-11.78,2.84-4.755-2.032-5.294-8.536-4.553-12.98a14.893,14.893,0,0,1,1.457-4.476ZM-609.237-342.4l.008-.021-.034.065a22.694,22.694,0,0,0-1.43,2.863c-5.894,12.1-8.955,22.447-8.826,30.84a24.669,24.669,0,0,0,14.922,22.45c6.229,2.639,13.764,2.341,22.9-1.564A53.03,53.03,0,0,0-565.257-300.8l8.511,5.587.01-.019-.008.021.034-.065a22.867,22.867,0,0,0,1.43-2.865c5.9-12.1,8.955-22.447,8.826-30.84a24.665,24.665,0,0,0-14.922-22.449c-6.229-2.641-13.764-2.341-22.9,1.564a52.937,52.937,0,0,0-16.415,13l-.027.029-8.51-5.585-.011.019" transform="translate(619.524 353.15)" fill-rule="evenodd" fill="url(#linear-gradient-2)"/>
              </g>
            </g>
          </g>
        </g>
      </g>
    </g>
  </g>
</svg>
