<?xml version="1.0" encoding="utf-8"?>
<!-- Generator: Adobe Illustrator 19.2.1, SVG Export Plug-In . SVG Version: 6.00 Build 0)  -->
<svg version="1.1" id="layer" xmlns="http://www.w3.org/2000/svg" xmlns:xlink="http://www.w3.org/1999/xlink" x="0px" y="0px"
	 viewBox="0 0 652 652" style="enable-background:new 0 0 652 652;" xml:space="preserve">
<style type="text/css">
	.st0{fill:#407AB2;}
	.st1{fill:#B2DECC;}
	.st2{fill:#3B63A3;}
	.st3{fill:#66BFD4;}
	.st4{fill:#4DABCF;}
	.st5{fill:#4594C2;}
	.st6{fill:#334F94;}
</style>
<path class="st0" d="M179.6,297.3l-58.9,0c0,0,4.1,1.2,4.1,5.1c0,1.6-0.4,3-1.4,4c-0.2,0.2-1.2,1.2-1.5,1.5l57.7,0
	c2.9,0,5.2-2.4,5.2-5.3C184.8,299.7,182.5,297.3,179.6,297.3"/>
<path class="st1" d="M168.2,375.9h-42c-2.9,0-5.2,2.3-5.2,5.2c0,2.9,2.3,5.2,5.2,5.2h42c2.9,0,5.2-2.3,5.2-5.2
	C173.4,378.3,171.1,375.9,168.2,375.9"/>
<path class="st2" d="M52.6,291.9h116c2.8,0,5.1-2.3,5.1-5.1c0-2.8-2.3-5.1-5.1-5.1h-116c-2.8,0-5.1,2.3-5.1,5.1
	C47.5,289.6,49.8,291.9,52.6,291.9"/>
<path class="st3" d="M189.1,344.5c2.9,0,5.2,2.3,5.2,5.2c0,2.9-2.3,5.2-5.2,5.2H65.9c-0.5,0-1.1-0.1-1.6-0.2c-2.3-0.5-4-2.6-4-5
	c0-1.5,0.7-2.9,1.8-3.9c0,0,0.1-0.1,0.1-0.1l6.6-6.6l31.3-31.2l-47.8,0H32c-2.9,0-5.2-2.3-5.2-5.2c0-2.9,2.3-5.2,5.2-5.2h80.1
	c1.5-0.1,2.9,0.4,4.1,1.5c0.3,0.3,0.6,0.7,0.8,1.1c0,0.1,0.1,0.1,0.1,0.2c0,0,0,0.1,0.1,0.1c0.4,0.7,0.6,1.5,0.6,2.3
	c0,1.6-0.7,2.9-1.8,4l-3.9,3.9l-33.9,34.1H189.1 M178.7,360.2H94.8c-2.9,0-5.2,2.3-5.2,5.2c0,2.9,2.3,5.2,5.2,5.2h83.9
	c2.9,0,5.2-2.3,5.2-5.2C183.9,362.5,181.6,360.2,178.7,360.2"/>
<path class="st4" d="M189.2,328.8c2.8,0,5.2,2.3,5.2,5.2c0,2.9-2.3,5.2-5.2,5.2H90.5l10.3-10.4H189.2 M71.6,328.8H42.4
	c-2.8,0-5.1,2.3-5.1,5.2c0,2.9,2.3,5.2,5.1,5.2h18.9L71.6,328.8z"/>
<path class="st5" d="M76.9,323.5h-45c-2.8,0-5.1-2.3-5.1-5.1c0-2.8,2.3-5.1,5.1-5.1h55.3L76.9,323.5z M116.5,313.3l-10.3,10.4
	l82.9-0.1c2.8,0,5.2-2.3,5.2-5.2c0-2.9-2.3-5.2-5.2-5.2L116.5,313.3z"/>
<path class="st6" d="M73.8,276.1c-2.8,0-5.1-2.3-5.1-5.1c0-2.8,2.3-5.1,5.1-5.1h70.3c2.8,0,5.1,2.3,5.1,5.1c0,2.8-2.3,5.1-5.1,5.1
	H73.8 M227,364.5c-6,0-10.7,4.6-10.7,11c0,6.4,4.7,10.9,10.7,10.9c4.6,0,8.3-2.3,9.9-6.4h-3.3c-1.2,2.6-3.4,4-6.6,4
	c-4.5,0-7.8-3.3-7.8-8.5c0-5.3,3.3-8.5,7.8-8.5c3.1,0,5.4,1.4,6.6,4h3.3C235.3,366.8,231.7,364.5,227,364.5 M251.9,386.5
	c-6,0-10.7-4.5-10.7-11c0-6.4,4.7-11,10.7-11c6,0,10.7,4.5,10.7,11C262.7,381.9,258,386.5,251.9,386.5 M251.9,384
	c4.5,0,7.9-3.3,7.9-8.5c0-5.3-3.4-8.5-7.9-8.5c-4.5,0-7.9,3.3-7.9,8.5C244.1,380.7,247.4,384,251.9,384z M287.1,371h-3.3
	c-1.2-2.5-3.5-3.9-6.5-3.9c-4.5,0-7.9,3.3-7.9,8.4c0,5.1,3.4,8.4,7.9,8.4c4.2,0,7.1-2.7,7.5-7h-8.5v-2.3h11.5v2.2
	c-0.5,5.3-4.7,9.6-10.5,9.6c-6,0-10.7-4.5-10.7-10.9c0-6.4,4.7-11,10.7-11C281.7,364.5,285.5,366.9,287.1,371 M309,364.7v21.5h-2.8
	L295,369.2v17.1h-2.8v-21.5h2.8l11.2,17.1v-17.1H309z M314.9,364.8h2.8v21.5h-2.8V364.8z M322.3,364.8h14.5v2.3H331v19.2h-2.8v-19.2
	h-5.9V364.8z M341.4,364.8h2.8v21.5h-2.8V364.8z M364.9,364.8h2.9l-8.1,21.5h-3.2l-8.1-21.5h3l6.7,18.5L364.9,364.8z M384,367.1
	h-8.7v7.2h7.8v2.3h-7.8v7.4h8.7v2.3h-11.5v-21.5H384V367.1z M405.7,377.3h-4.1v9h-2.8v-21.5h6.9c5,0,7.4,2.8,7.4,6.3
	C413.1,374.3,411,377.3,405.7,377.3 M405.7,375c3.2,0,4.5-1.5,4.5-3.9c0-2.5-1.4-4-4.5-4h-4.1v7.9H405.7z M424.6,364.8
	c5,0,7.4,2.8,7.4,6.3c0,2.7-1.5,5.4-5.1,6.2l5.4,9H429l-5.1-8.8h-3.4v8.8h-2.8v-21.5H424.6z M424.6,367.1h-4.1v8.1h4.1
	c3.2,0,4.5-1.7,4.5-4.1C429.2,368.7,427.8,367.1,424.6,367.1z M447.3,386.5c-6,0-10.7-4.5-10.7-11c0-6.4,4.7-11,10.7-11
	c6,0,10.7,4.5,10.7,11C458,381.9,453.3,386.5,447.3,386.5 M447.3,384c4.5,0,7.9-3.3,7.9-8.5c0-5.3-3.4-8.5-7.9-8.5s-7.9,3.3-7.9,8.5
	C439.4,380.7,442.8,384,447.3,384z M472.5,364.5c4.6,0,8.3,2.3,9.9,6.5h-3.3c-1.2-2.6-3.4-4-6.6-4c-4.5,0-7.8,3.3-7.8,8.5
	c0,5.2,3.3,8.5,7.8,8.5c3.1,0,5.4-1.4,6.6-4h3.3c-1.6,4.1-5.3,6.4-9.9,6.4c-6,0-10.7-4.5-10.7-10.9
	C461.8,369.1,466.5,364.5,472.5,364.5 M487.7,364.8h2.8v13.6c0,3.9,2.1,5.6,5.3,5.6c3.2,0,5.2-1.7,5.2-5.6v-13.6h2.8v13.6
	c0,5.6-3.6,8.1-8.1,8.1c-4.4,0-8-2.6-8-8.1V364.8z M516.5,364.8c5,0,7.4,2.8,7.4,6.3c0,2.7-1.5,5.4-5.1,6.2l5.4,9h-3.3l-5.1-8.8
	h-3.4v8.8h-2.8v-21.5H516.5z M516.5,367.1h-4.1v8.1h4.1c3.2,0,4.5-1.7,4.5-4.1C521,368.7,519.7,367.1,516.5,367.1z M540.9,367.1
	h-8.7v7.2h7.8v2.3h-7.8v7.4h8.7v2.3h-11.5v-21.5h11.5V367.1z M546.4,364.9h3l7.8,17.6l7.8-17.6h3v21.3h-2.8v-15.9l-7.1,15.9h-2
	l-7.1-15.9v15.9h-2.8V364.9z M585.4,367.1h-8.7v7.2h7.8v2.3h-7.8v7.4h8.7v2.3h-11.5v-21.5h11.5V367.1z M607.7,364.7v21.5h-2.8
	l-11.2-17.1v17.1h-2.8v-21.5h2.8l11.2,17.1v-17.1H607.7z M612.3,364.8h14.5v2.3h-5.8v19.2h-2.8v-19.2h-5.9V364.8z M284.7,281.2
	l-42.9,51h43.5v17.4H216v-15.1l43.2-51.1h-42v-17.3h67.5V281.2z M318.6,266.1l18.5,32l18.8-32h22.7l-32.1,51.2v32.2H327v-32.4
	l-31.3-51H318.6z M459.7,318.4c-3.1,19.3-18.5,32.6-39.5,32.6c-25.9,0-41.6-16.6-41.6-43.3c0-26.3,16.1-43,41.9-43h0.4
	c20.6,0.1,35.4,13.6,38.2,32.6h-19.2c-2.2-11.4-10.5-16.3-19.8-16.3c-11.6,0-20.7,9.8-20.7,26.8c0,17.6,9,27,21,27
	c8.6,0,17.6-3.7,20.1-16.3H459.7z M490.6,266.1v49.8c0,12.2,2.7,19,16.5,19c13.7,0,16.1-7.8,16.1-20.1v-48.7h19.6v47.1
	c0,25.7-9.8,37.9-35.7,37.9c-24.8,0-36.1-9.7-36.1-37.2v-47.7H490.6z M604.9,290.3c-1.9-6.3-8-9.8-16.4-9.8
	c-7.7,0-13.2,2.9-13.2,8.1c0,4.1,3.8,7.1,9.6,8.4l11.3,2.3c13.4,2.8,30.3,6.9,30.3,24.4c0,17.5-17.4,27.4-34.8,27.4
	c-21.5,0-35.1-10.4-38.2-28.6h19.5c2.2,8.7,9,12.8,19.2,12.8c6.8,0,14.2-2.2,14.2-9.1c0-5.4-6.3-8.1-15.5-10L581,314
	c-13.5-2.8-25.8-9.3-25.8-24.3c0-16.9,18-24.9,34.2-25h0.5c16.1,0.1,31.6,7.2,34.3,25.5H604.9z"/>
</svg>
