<?xml version="1.0" encoding="utf-8"?>
<!-- Generator: Adobe Illustrator 24.3.0, SVG Export Plug-In . SVG Version: 6.00 Build 0)  -->
<svg version="1.1" id="Layer_1" xmlns="http://www.w3.org/2000/svg" xmlns:xlink="http://www.w3.org/1999/xlink" x="0px" y="0px"
	 viewBox="0 0 512 512" style="enable-background:new 0 0 512 512;" xml:space="preserve">
<style type="text/css">
	.st0{fill:#1162A5;}
	.st1{fill:#FFFFFF;}
	.st2{fill:#231F20;}
</style>
<g id="XMLID_1_">
	<path id="XMLID_27_" class="st0" d="M113.34,256c0,30.72-24.83,55.55-55.55,55.55S2.24,286.72,2.24,256s24.83-55.55,55.55-55.55
		C88.37,200.45,113.34,225.28,113.34,256"/>
	<path id="XMLID_30_" class="st1" d="M57.79,201.01c-30.3,0-54.99,24.69-54.99,54.99c0,30.3,24.69,54.99,54.99,54.99
		s54.99-24.69,54.99-54.99C112.64,225.7,88.09,201.01,57.79,201.01 M57.79,313.79C25.95,313.79,0,287.84,0,256
		s25.95-57.79,57.79-57.79s57.79,25.95,57.79,57.79C115.45,287.84,89.64,313.79,57.79,313.79"/>
	<rect id="XMLID_31_" x="1.4" y="250.81" class="st1" width="113.06" height="2.67"/>
	<rect id="XMLID_32_" x="18.94" y="213.64" class="st1" width="77.85" height="2.67"/>
	<rect id="XMLID_33_" x="14.31" y="290.23" class="st1" width="86.69" height="2.67"/>
	<polygon id="XMLID_34_" class="st2" points="133.12,265.54 133.12,239.59 147.57,239.59 147.01,243.09 137.47,243.09 
		137.47,250.25 145.46,250.25 145.46,253.76 137.47,253.76 137.47,261.89 147.85,261.89 147.85,265.54 	"/>
	<polygon id="XMLID_35_" class="st2" points="170.01,265.54 164.54,255.3 159.35,265.54 154.16,265.54 162.02,251.65 155.14,239.59 
		160.33,239.59 164.54,247.58 168.61,239.59 173.66,239.59 167.07,251.37 175.2,265.54 	"/>
	<path id="XMLID_38_" class="st2" d="M194.7,244.36c-0.84-0.84-1.96-1.26-3.65-1.26h-3.37v9.12h3.37c3.23,0,4.63-1.54,4.63-4.63
		C195.68,246.18,195.4,245.06,194.7,244.36 M192.04,255.58h-4.35v9.96h-4.35v-25.95h6.87c3.79,0,5.19,0.42,6.59,1.26
		c2.24,1.4,3.51,3.65,3.51,6.59C200.45,252.49,196.8,255.58,192.04,255.58"/>
	<path id="XMLID_41_" class="st2" d="M216.44,243.09h-2.38v8.28h2.24c2.24,0,3.51-0.28,4.21-1.12c0.7-0.7,1.12-1.82,1.12-3.09
		C221.77,244.36,220.37,243.09,216.44,243.09 M222.47,265.54l-2.24-4.07c-1.82-3.23-2.95-5.05-4.49-6.45
		c-0.42-0.42-0.84-0.7-1.68-0.84v11.22h-4.21v-25.95h7.86c5.75,0,8.42,3.37,8.42,7.43c0,3.79-2.38,7.15-6.45,7.15
		c0.98,0.42,2.67,2.95,4.07,5.19l3.79,6.17h-5.05V265.54z"/>
	<polygon id="XMLID_42_" class="st2" points="237.06,265.54 237.06,239.59 251.51,239.59 250.95,243.09 241.41,243.09 
		241.41,250.25 249.41,250.25 249.41,253.76 241.41,253.76 241.41,261.89 251.79,261.89 251.79,265.54 	"/>
	<path id="XMLID_43_" class="st2" d="M268.2,266.1c-2.95,0-6.03-0.84-8.56-2.38l1.68-3.37c2.38,1.4,4.35,2.1,7.01,2.1
		c3.23,0,5.05-1.54,5.05-4.07c0-1.96-1.26-3.09-3.93-3.93l-2.81-0.84c-2.38-0.7-4.07-1.68-5.05-3.09c-0.7-1.12-1.12-2.24-1.12-3.79
		c0-4.63,3.65-7.72,8.84-7.72c2.95,0,5.89,0.84,8.28,2.52l-1.96,3.09c-2.38-1.4-4.07-1.96-6.17-1.96c-2.52,0-4.21,1.4-4.21,3.51
		c0,1.54,0.84,2.38,3.51,3.23l3.09,0.84c3.79,1.12,6.45,3.51,6.45,7.43C278.44,262.03,274.94,266.1,268.2,266.1"/>
	<path id="XMLID_44_" class="st2" d="M295.14,266.1c-2.95,0-6.03-0.84-8.56-2.38l1.68-3.37c2.38,1.4,4.35,2.1,7.01,2.1
		c3.23,0,5.05-1.54,5.05-4.07c0-1.96-1.26-3.09-3.93-3.93l-2.81-0.84c-2.38-0.7-4.07-1.68-5.05-3.09c-0.7-1.12-1.12-2.24-1.12-3.79
		c0-4.63,3.65-7.72,8.84-7.72c2.95,0,5.89,0.84,8.28,2.52l-1.96,3.09c-2.38-1.4-4.07-1.96-6.17-1.96c-2.52,0-4.21,1.4-4.21,3.51
		c0,1.54,0.84,2.38,3.51,3.23l3.09,0.84c3.79,1.12,6.45,3.51,6.45,7.43C305.38,262.03,301.87,266.1,295.14,266.1"/>
	<path id="XMLID_45_" class="st2" d="M336.24,266.1c-2.95,0-6.03-0.84-8.56-2.38l1.68-3.37c2.38,1.4,4.35,2.1,7.01,2.1
		c3.23,0,5.05-1.54,5.05-4.07c0-1.96-1.26-3.09-3.93-3.93l-2.81-0.84c-2.38-0.7-4.07-1.68-5.05-3.09c-0.7-1.12-1.12-2.24-1.12-3.79
		c0-4.63,3.65-7.72,8.84-7.72c2.95,0,5.89,0.84,8.28,2.52l-1.96,3.09c-2.38-1.4-4.07-1.96-6.17-1.96c-2.52,0-4.21,1.4-4.21,3.51
		c0,1.54,0.84,2.38,3.51,3.23l3.09,0.84c3.79,1.12,6.45,3.51,6.45,7.43C346.34,262.03,342.83,266.1,336.24,266.1"/>
	<path id="XMLID_46_" class="st2" d="M366.68,265.96c-3.51,0-6.17-1.26-8.28-3.79c-1.96-2.38-2.95-5.47-2.95-9.26
		c0-3.09,0.56-5.75,1.68-7.86c1.96-3.79,5.47-6.03,9.54-6.03c2.52,0,4.91,0.7,6.45,1.96l-1.96,2.81c-1.4-0.98-2.81-1.4-4.49-1.4
		c-2.24,0-4.07,1.12-5.19,3.09c-0.84,1.54-1.4,3.79-1.4,6.87c0,3.23,0.28,5.05,0.98,6.45c1.12,2.52,3.23,3.65,5.75,3.65
		c1.82,0,3.23-0.42,4.63-1.68l1.96,2.81C371.87,265.26,369.48,265.96,366.68,265.96"/>
	<path id="XMLID_49_" class="st2" d="M390.24,243.09h-2.38v8.28h2.24c2.24,0,3.51-0.28,4.21-1.12c0.7-0.7,1.12-1.82,1.12-3.09
		C395.43,244.36,394.03,243.09,390.24,243.09 M396.27,265.54l-2.24-4.07c-1.82-3.23-2.95-5.05-4.49-6.45
		c-0.42-0.42-0.84-0.7-1.68-0.84v11.22h-4.21v-25.95h8c5.89,0,8.42,3.37,8.42,7.43c0,3.79-2.38,7.15-6.45,7.15
		c0.98,0.42,2.67,2.95,4.07,5.19l3.79,6.17h-5.19V265.54z"/>
	<rect id="XMLID_50_" x="410.72" y="239.59" class="st2" width="4.49" height="25.95"/>
	<path id="XMLID_53_" class="st2" d="M438.08,244.36c-0.84-0.84-1.96-1.26-3.65-1.26h-3.37v9.12h3.37c3.23,0,4.63-1.54,4.63-4.63
		C439.2,246.18,438.78,245.06,438.08,244.36 M435.55,255.58h-4.35v9.96h-4.21v-25.95h6.87c3.79,0,5.19,0.42,6.59,1.26
		c2.24,1.4,3.51,3.65,3.51,6.59C443.97,252.49,440.18,255.58,435.55,255.58"/>
	<polygon id="XMLID_54_" class="st2" points="467.53,243.24 460.94,243.24 460.94,265.54 456.73,265.54 456.73,243.24 
		450.14,243.24 450.14,239.59 468.09,239.59 	"/>
	<path id="XMLID_55_" class="st2" d="M482.82,266.1c-2.95,0-6.03-0.84-8.56-2.38l1.68-3.37c2.38,1.4,4.35,2.1,7.01,2.1
		c3.23,0,5.05-1.54,5.05-4.07c0-1.96-1.26-3.09-3.93-3.93l-2.81-0.84c-2.38-0.7-4.07-1.68-5.05-3.09c-0.7-1.12-1.12-2.24-1.12-3.79
		c0-4.63,3.65-7.72,8.84-7.72c2.95,0,5.89,0.84,8.28,2.52l-1.96,3.09c-2.38-1.4-4.07-1.96-6.17-1.96c-2.52,0-4.21,1.4-4.21,3.51
		c0,1.54,0.84,2.38,3.51,3.23l3.09,0.84c3.79,1.12,6.31,3.51,6.31,7.43C492.92,262.03,489.42,266.1,482.82,266.1"/>
	<path id="XMLID_60_" class="st2" d="M506.39,243.94c-0.14,0-0.42-0.14-0.84-0.14h-0.56v1.82h0.42c0.56,0,0.84-0.14,0.98-0.28
		s0.28-0.42,0.28-0.7C506.81,244.36,506.67,244.08,506.39,243.94 M507.09,249.69c-0.28-0.42-0.42-0.7-0.7-1.12
		c-0.7-1.26-0.84-1.54-1.12-1.68h-0.28v2.95h-1.4v-7.01h2.52c1.26,0,2.1,0.84,2.1,1.96c0,0.98-0.7,1.96-1.54,1.96
		c0.14,0.14,0.14,0.14,0.28,0.28c0.42,0.56,1.68,2.67,1.68,2.67L507.09,249.69L507.09,249.69z M505.83,241.27
		c-2.67,0-4.77,2.24-4.77,4.91c0,2.81,2.1,5.05,4.77,5.05c2.67,0,4.77-2.24,4.77-5.05S508.49,241.27,505.83,241.27 M505.83,252.35
		c-3.37,0-6.17-2.67-6.17-6.17s2.81-6.17,6.17-6.17c3.37,0,6.17,2.81,6.17,6.17C512,249.69,509.19,252.35,505.83,252.35"/>
	<path id="XMLID_61_" class="st1" d="M46.57,229.63c4.35-9.4,1.12-10.52-4.91-11.08l1.68-3.65h51.9c0,0,6.03,4.91,8.28,8
		c-1.12,3.09-1.96,5.61-2.81,8.28l-4.21,0.42c0.98-4.91,0.28-8.14-0.98-9.96c-1.54-1.96-5.19-3.09-14.03-3.09H70.7
		c-2.24,0-3.23,0.28-4.77,3.51L53.3,249.13h12.34c12.34,0,13.75-0.98,19.22-8.28h3.93l-9.96,21.32h-3.93
		c1.54-8,0.56-8.84-11.22-8.84H51.2l-10.52,23.15c-2.38,5.05-3.79,8.7-2.1,9.54c2.24,1.26,6.45,1.4,13.47,1.4
		c9.4,0,15.57-1.26,19.92-3.93c3.51-2.24,8.14-6.03,12.62-10.8l3.79,0.42c-1.82,2.67-10.66,14.59-13.19,17.81H13.33
		c0,0-1.26-1.68-2.1-2.81c9.96-0.98,9.68-3.37,13.47-11.78L46.57,229.63z"/>
	<path id="XMLID_69_" class="st1" d="M31.98,229.63l-0.28-2.67c1.4-0.14,2.81-0.14,4.21-0.14c0.98,0,1.82,0,2.81,0.14l-0.14,2.67
		c-0.84,0-1.68-0.14-2.67-0.14C34.65,229.49,33.24,229.49,31.98,229.63 M50.78,232.15c-2.1-0.7-4.21-1.4-6.31-1.82l0.56-2.67
		c2.24,0.42,4.63,1.12,6.73,1.96L50.78,232.15z M19.78,232.57l-0.98-2.52c2.1-0.84,4.49-1.54,6.73-2.1l0.56,2.67
		C23.99,231.17,21.88,231.73,19.78,232.57 M61.72,238.04c-1.82-1.26-3.65-2.52-5.61-3.51l1.26-2.38c2.1,1.12,4.07,2.38,5.89,3.79
		L61.72,238.04z M8.98,238.89l-1.68-2.1c1.82-1.4,3.79-2.81,5.75-3.93l1.4,2.38C12.62,236.22,10.66,237.48,8.98,238.89
		 M70.56,247.02c-1.26-1.82-2.81-3.51-4.35-5.05l1.96-1.96c1.68,1.68,3.23,3.37,4.63,5.33L70.56,247.02z M76.45,257.96
		c-0.7-2.1-1.68-4.07-2.67-6.03l2.38-1.26c1.12,2.1,2.1,4.21,2.95,6.45L76.45,257.96z"/>
	<path id="XMLID_73_" class="st1" d="M78.83,272.27c0-2.24-0.28-4.35-0.7-6.59l2.67-0.56c0.42,2.38,0.7,4.63,0.7,7.01L78.83,272.27z
		 M74.77,296.54l-2.38-1.4c1.12-1.82,1.68-2.81,2.52-4.77h2.95C77.01,292.47,75.89,294.58,74.77,296.54 M66.21,306.78l-1.82-1.96
		c1.68-1.4,3.23-3.09,4.63-4.77l2.1,1.68C69.58,303.41,67.89,305.24,66.21,306.78"/>
	<polygon id="XMLID_74_" class="st1" points="17.67,297.38 15.71,295.56 61.02,199.05 63.54,200.17 18.1,297.1 	"/>
	
		<rect id="XMLID_75_" x="-6.24" y="251.16" transform="matrix(0.4215 -0.9068 0.9068 0.4215 -199.8709 191.6696)" class="st1" width="113.06" height="2.67"/>
	<path id="XMLID_76_" class="st1" d="M54.71,312.95l-1.96-1.4c2.1-0.84,4.07-1.82,5.89-2.95l1.4,2.38c-1.96,1.12-2.67,1.4-4.91,2.24
		L54.71,312.95z"/>
</g>
</svg>
