<?xml version="1.0" encoding="UTF-8"?>
<svg width="400" height="400" version="1.1" xmlns="http://www.w3.org/2000/svg">
 <path d="m197.79 10.12c-42.58 0.494-85.231 15.211-120.23 44.813-38.878 32.897-62.43 78.885-66.916 129.35-4.1119 50.467 11.591 99.808 44.115 138.31 37.757 44.485 91.585 67.294 145.42 67.294 43.364 6e-5 86.727-14.586 122.61-44.492 5.6073-4.8597 6.3605-13.452 1.5006-19.433-4.8599-5.6074-13.459-6.3608-19.066-1.501-68.785 57.943-171.59 49.351-229.53-19.433-28.037-32.897-41.505-75.137-37.766-118.5 3.7382-43.364 23.929-82.627 57.2-110.66 68.411-57.943 171.22-49.34 229.16 19.445 38.131 45.233 48.969 107.67 27.661 162.99-2.6171 7.1027 1.124 14.949 8.2267 17.565 6.729 2.6168 14.574-0.74617 17.565-7.8489 24.299-64.672 11.968-137.57-32.518-190.65-38.061-44.999-92.687-67.883-147.43-67.248zm-58.54 127.44c-8.5975 0-14.208 5.9725-14.208 14.197v87.85c0 19.813 16.079 35.887 36.266 35.887 19.065 0 34.766-14.954 35.887-34.019v-46.727c0-18.691 12.707-30.651 30.651-30.651s30.651 11.959 30.651 30.651v66.549c0 7.8504 5.2359 14.197 14.208 14.197 8.5981 0 14.208-6.3464 14.208-14.197v-66.171c0-33.271-24.674-56.455-59.067-56.455-34.392 0-59.068 23.184-59.068 56.455v44.859c0 4.1121-3.3581 7.4708-7.4706 7.4708-4.4856 0-7.8489-3.7368-7.8489-7.8489v-87.85c0-8.2242-5.236-14.197-14.208-14.197z" fill="#140f10"/>
 <path d="m125.03 111.76c0-7.8504 6.3553-14.206 14.205-14.206 7.8507 0 14.205 6.3551 14.205 14.206 0 7.8503-6.3547 14.205-14.205 14.205-7.8501 0-14.205-6.3551-14.205-14.205" fill="#ffc80a"/>
 <path d="m331.39 302.41c0-7.8504 6.729-14.205 14.579-14.205 7.8507 0 14.206 6.3551 14.206 14.205 0 7.8504-6.3553 14.205-14.206 14.205-7.8501 0-14.579-6.3551-14.579-14.205" fill="#ffc80a"/>
</svg>
