<?xml version="1.0" encoding="utf-8"?>
<!-- Generator: Adobe Illustrator 24.0.2, SVG Export Plug-In . SVG Version: 6.00 Build 0)  -->
<svg version="1.0" id="Layer_1" xmlns="http://www.w3.org/2000/svg" xmlns:xlink="http://www.w3.org/1999/xlink" x="0px" y="0px"
	 viewBox="0 0 300 280" enable-background="new 0 0 300 280" xml:space="preserve">
<g>
	<g>
		<g>
			<path fill="#6F767B" d="M177.63,143.41c-1.09-0.4-2.02-0.75-2.02-1.45c0-0.81,0.58-1.2,1.78-1.2c0.97,0,2.18,0.35,3.18,0.91
				l0.03,0.02l0.6-1.8l-0.02-0.01c-1.03-0.69-2.76-1.14-4.4-1.14c-2.82,0-4.5,1.31-4.5,3.51c0,2.34,1.96,3.02,3.53,3.68
				c1.16,0.49,2.31,1.06,2.31,1.93c0,0.9-0.69,1.27-2,1.27c-1.15,0-2.48-0.39-3.49-1.01l-0.03-0.02l-0.63,1.83l0.02,0.01
				c1.03,0.73,2.9,1.24,4.57,1.24c1.54,0,2.74-0.36,3.57-1.06c0.81-0.69,1.22-1.68,1.22-2.94
				C181.35,144.8,179.28,144.03,177.63,143.41z"/>
			<path fill="#6F767B" d="M170.4,146.99v-3.02c0-1.8-0.42-3.1-1.29-3.96c-0.98-0.98-2.04-1.39-3.57-1.39
				c-1.58,0-3.49,0.58-4.74,1.44l-0.02,0.01l0.53,1.8l0.04-0.02c1.02-0.64,2.2-1.01,3.25-1.01c0.92,0,1.69,0.25,2.06,0.67
				c0.43,0.47,0.62,0.9,0.63,2.12c-0.73-0.32-1.66-0.31-2.5-0.3c-0.13,0-0.26,0-0.39,0c-2.78,0-4.5,1.52-4.5,3.98
				c0,1.14,0.39,2.11,1.13,2.81c0.75,0.7,1.79,1.07,3.03,1.07c1.13,0,2.45-0.44,3.54-1.17c0.07,0.33,0.14,0.56,0.26,0.86l0.01,0.02
				h2.75l-0.01-0.04C170.45,149.6,170.4,148.77,170.4,146.99z M167.29,145.42v2.85c-0.8,0.5-1.63,0.98-2.25,0.98
				c-1.23,0-1.91-0.68-1.91-1.93c0-1.35,0.74-2.12,2.03-2.12c0.08,0,0.17,0,0.26,0c0.1,0,0.21,0,0.32,0
				C166.18,145.2,166.75,145.22,167.29,145.42z"/>
			<polygon fill="#6F767B" points="100.43,136.28 105.12,136.28 105.12,150.89 108.66,150.89 108.66,136.28 113.35,136.28 
				113.35,133.79 100.43,133.79 			"/>
			<path fill="#6F767B" d="M118.09,150.89v-9.15c0.7-0.5,1.53-0.78,2.26-0.78c1.3,0,1.92,0.89,1.92,2.72v7.21h3.3v-7.14
				c0-1.7-0.39-2.96-1.19-3.84c-0.78-0.83-1.6-1.17-2.82-1.17c-1.19,0-2.45,0.36-3.47,0.99l0-5.93h-3.3l0,17.1H118.09z"/>
			<path fill="#6F767B" d="M155.05,150.89h3.3v-7.14c0-1.82-0.35-3.05-1.09-3.87c-0.74-0.79-1.59-1.15-2.75-1.15
				c-1.36,0-2.81,0.53-4.08,1.48c-0.05-0.07-0.1-0.13-0.16-0.2c-0.03-0.04-0.06-0.07-0.09-0.11c-0.71-0.78-1.64-1.17-2.78-1.17
				c-1.24,0-2.55,0.45-3.7,1.26c-0.09-0.27-0.14-0.44-0.19-0.59c-0.04-0.12-0.07-0.23-0.11-0.36l-0.01-0.02h-2.66v11.86h3.3v-6.49
				c0-0.55,0-1.08,0-1.56c0-0.4,0-0.77,0-1.1c0.84-0.65,1.66-0.79,2.2-0.79c0.5,0,0.88,0.15,1.16,0.45c0.41,0.46,0.57,1.1,0.57,2.27
				v7.21h3.3v-7.14c0-0.38,0-0.75-0.01-1.1c0-0.34-0.01-0.66-0.01-0.98c0.84-0.63,1.53-0.72,2.09-0.72c0.5,0,0.88,0.15,1.16,0.45
				c0.41,0.46,0.57,1.1,0.57,2.27V150.89z"/>
			<path fill="#6F767B" d="M133.13,151.18c1.88,0,3.44-0.57,4.5-1.65c1.05-1.06,1.6-2.6,1.6-4.45c0-1.87-0.55-3.45-1.6-4.58
				c-1.08-1.16-2.63-1.77-4.5-1.77c-3.74,0-5.98,2.33-5.98,6.22C127.16,148.85,129.39,151.18,133.13,151.18z M133.13,140.66
				c1.71,0,2.58,1.45,2.58,4.3c0,2.85-0.87,4.29-2.58,4.29c-1.71,0-2.58-1.45-2.58-4.29C130.55,142.1,131.42,140.66,133.13,140.66z"
				/>
		</g>
		<g>
			<path fill="#6F767B" d="M199.89,148.08l-0.03,0.01c-1.3,0.51-2.95,0.75-3.94,0.75c-1.34,0-2.34-0.32-3.05-0.98
				c-1.19-1.1-1.74-2.79-1.74-5.32c0-2.99,0.89-4.53,1.64-5.3c0.67-0.67,1.66-1.03,2.85-1.03c1.1,0,2.82,0.31,4.16,0.99l0.03,0.02
				l0.62-2.02l0.01-0.02l-0.02-0.01c-1.54-0.93-3.62-1.26-5.06-1.26c-2.31,0-4.17,0.69-5.51,2.06c-1.54,1.59-2.36,3.87-2.36,6.57
				c0,2.99,0.87,5.36,2.5,6.84c1.32,1.19,3.14,1.8,5.41,1.8c1.43,0,3.5-0.27,5.03-1.02l0.02-0.01l-0.56-2.03L199.89,148.08z"/>
			<path fill="#6F767B" d="M207.18,138.74c-3.74,0-5.98,2.33-5.98,6.22s2.23,6.22,5.98,6.22c3.74,0,5.98-2.33,5.98-6.22
				S210.92,138.74,207.18,138.74z M207.18,149.26c-1.71,0-2.58-1.45-2.58-4.29c0-2.85,0.87-4.29,2.58-4.29
				c1.71,0,2.58,1.45,2.58,4.29C209.76,147.81,208.89,149.26,207.18,149.26z"/>
			<polygon fill="#6F767B" points="238.85,139.03 235.45,139.03 231.05,143.4 231.05,133.79 227.75,133.79 227.75,150.89 
				231.05,150.89 231.05,145.79 235.15,150.88 235.16,150.89 238.97,150.89 233.55,144.22 			"/>
			<path fill="#6F767B" d="M220.23,138.74c-3.74,0-5.98,2.33-5.98,6.22s2.23,6.22,5.98,6.22c3.74,0,5.97-2.33,5.97-6.22
				S223.97,138.74,220.23,138.74z M220.23,149.26c-1.71,0-2.58-1.45-2.58-4.29c0-2.85,0.87-4.29,2.58-4.29
				c1.71,0,2.58,1.45,2.58,4.29C222.81,147.81,221.94,149.26,220.23,149.26z"/>
		</g>
	</g>
	
		<radialGradient id="SVGID_1_" cx="-38.2077" cy="26.1611" r="10.7617" gradientTransform="matrix(-1.3788 -1.144 2.2515 -2.8022 -37.1138 167.5141)" gradientUnits="userSpaceOnUse">
		<stop  offset="0" style="stop-color:#FFF570"/>
		<stop  offset="0.615" style="stop-color:#FFDC32"/>
		<stop  offset="1" style="stop-color:#FFD100"/>
	</radialGradient>
	<path fill="url(#SVGID_1_)" d="M72.87,140.27l4.9-4.99l-4.91-4.99c-2.71-2.75-7.1-2.75-9.81,0c-2.71,2.75-2.71,7.22,0,9.97
		C65.81,143.06,70.16,143.02,72.87,140.27z"/>
	
		<radialGradient id="SVGID_2_" cx="-40.3487" cy="25.8349" r="3.711" gradientTransform="matrix(-1.6735 -0.6162 1.2127 -3.4012 -28.1986 200.3307)" gradientUnits="userSpaceOnUse">
		<stop  offset="0" style="stop-color:#FFF200;stop-opacity:0.37"/>
		<stop  offset="0.1414" style="stop-color:#FFF200;stop-opacity:0.3177"/>
		<stop  offset="0.3066" style="stop-color:#FFF21B;stop-opacity:0.2566"/>
		<stop  offset="0.4836" style="stop-color:#FFF345;stop-opacity:0.1911"/>
		<stop  offset="0.669" style="stop-color:#FFF56C;stop-opacity:0.1225"/>
		<stop  offset="0.859" style="stop-color:#FFF791;stop-opacity:0.0522"/>
		<stop  offset="1" style="stop-color:#FFF9AE;stop-opacity:0"/>
	</radialGradient>
	<path fill="url(#SVGID_2_)" d="M72.32,139.83c1.97-2.01,4.99-5.04,4.99-5.04l-4.44-4.5c-2.71-2.75-7.1-2.75-9.81,0
		c-2.71,2.75-2.61,7.19-0.08,9.89C63.87,141.13,68.64,143.58,72.32,139.83z"/>
	<linearGradient id="SVGID_3_" gradientUnits="userSpaceOnUse" x1="72.1239" y1="139.0249" x2="63.5294" y2="131.2864">
		<stop  offset="0" style="stop-color:#FFF333"/>
		<stop  offset="0.5102" style="stop-color:#FFD528"/>
		<stop  offset="1" style="stop-color:#FBAA19"/>
	</linearGradient>
	<path fill="url(#SVGID_3_)" d="M72.87,140.27l4.91-4.99l-4.91-4.99c-2.71-2.75-7.1-2.75-9.81,0c-2.71,2.75-2.71,7.22,0,9.97
		C65.81,143.06,70.16,143.02,72.87,140.27z"/>
	
		<radialGradient id="SVGID_4_" cx="-37.3116" cy="29.6865" r="10.5454" gradientTransform="matrix(1.5039 -0.9676 1.0474 1.6811 101.0831 58.2818)" gradientUnits="userSpaceOnUse">
		<stop  offset="0" style="stop-color:#FCB333"/>
		<stop  offset="1" style="stop-color:#FFE600"/>
	</radialGradient>
	<path fill="url(#SVGID_4_)" d="M92.49,130.3c-2.71-2.75-7.1-2.75-9.81,0l-9.81,9.97c-2.71,2.75-7.1,2.75-9.81,0
		c0,0,9.81,9.97,9.81,9.97c2.71,2.75,7.1,2.75,9.81,0l9.81-9.97C95.2,137.51,95.2,133.05,92.49,130.3z"/>
	<linearGradient id="SVGID_5_" gradientUnits="userSpaceOnUse" x1="83.2788" y1="148.4841" x2="78.812" y2="137.1397">
		<stop  offset="0" style="stop-color:#FFD400"/>
		<stop  offset="0.1826" style="stop-color:#FFCE01"/>
		<stop  offset="0.4172" style="stop-color:#FFCB05"/>
		<stop  offset="0.6119" style="stop-color:#FFD800"/>
		<stop  offset="1" style="stop-color:#FFF200"/>
	</linearGradient>
	<path fill="url(#SVGID_5_)" d="M92.49,130.3c-2.71-2.75-7.1-2.75-9.81,0l-9.81,9.97c-2.71,2.75-7.1,2.75-9.81,0
		c0,0,9.81,9.97,9.81,9.97c2.71,2.75,7.1,2.75,9.81,0l9.81-9.97C95.2,137.51,95.2,133.05,92.49,130.3z"/>
	<g>
		<linearGradient id="SVGID_6_" gradientUnits="userSpaceOnUse" x1="80.2499" y1="131.0935" x2="64.5332" y2="131.942">
			<stop  offset="0" style="stop-color:#FFF346"/>
			<stop  offset="5.208500e-03" style="stop-color:#FFF248"/>
			<stop  offset="0.1281" style="stop-color:#FFE767"/>
			<stop  offset="0.2367" style="stop-color:#FFE175"/>
			<stop  offset="0.319" style="stop-color:#FFDF79"/>
			<stop  offset="0.5236" style="stop-color:#FFE877"/>
			<stop  offset="0.6503" style="stop-color:#FFFBD0"/>
			<stop  offset="0.8117" style="stop-color:#FFD679"/>
			<stop  offset="1" style="stop-color:#FFCA28"/>
		</linearGradient>
		<path fill="url(#SVGID_6_)" d="M72.94,130.23c-1.33-1.35-3.1-2.09-4.98-2.09c-1.46,0-2.85,0.45-4.02,1.28
			c1.17-1.01,2.76-1.58,4.42-1.58c1.81,0,3.46,0.67,4.65,1.88l5.06,5.14l-0.29,0.29L72.94,130.23z"/>
		<path fill="#FFFBC8" d="M68.37,127.93c1.78,0,3.4,0.66,4.58,1.85c0,0,4.15,4.22,4.99,5.07L77.78,135l-4.77-4.84
			c-1.35-1.37-3.14-2.12-5.05-2.12c-0.51,0-1.01,0.05-1.5,0.16C67.07,128.02,67.71,127.93,68.37,127.93 M68.37,127.73
			c-1.79,0-3.57,0.67-4.81,1.91c-0.52,0.52-0.69,0.75-1.15,1.41l-0.13,0.22c0.25-0.39,0.46-0.63,0.79-0.97
			c1.35-1.38,3.13-2.06,4.91-2.06c1.78,0,3.55,0.69,4.91,2.06l4.91,4.99l0.43-0.43c-0.22-0.22-5.13-5.21-5.13-5.21
			C71.81,128.34,70.08,127.73,68.37,127.73L68.37,127.73z"/>
	</g>
	<g>
		<linearGradient id="SVGID_7_" gradientUnits="userSpaceOnUse" x1="65.5212" y1="142.3537" x2="88.6585" y2="127.8626">
			<stop  offset="0" style="stop-color:#FFE65B"/>
			<stop  offset="0.0456" style="stop-color:#FFEA74"/>
			<stop  offset="0.127" style="stop-color:#FFF094"/>
			<stop  offset="0.2023" style="stop-color:#FFF5AA"/>
			<stop  offset="0.2687" style="stop-color:#FFF8B9"/>
			<stop  offset="0.319" style="stop-color:#FFFABE"/>
			<stop  offset="0.5951" style="stop-color:#FFF272"/>
			<stop  offset="0.8405" style="stop-color:#FFFAC0"/>
			<stop  offset="1" style="stop-color:#FFDC5D"/>
		</linearGradient>
		<path fill="url(#SVGID_7_)" d="M91.3,129.24c-2.04-1.58-5.97-2.6-8.86,0.29l-10.09,10.25c-2.71,2.75-7.03,2.67-9.61,0.13
			c0,0,0.59,0.67,1,0.99c2.86,2.24,6.76,1.85,9.13-0.56l9.81-9.97c2.92-2.9,6.22-2.67,9.38-0.49
			C92.07,129.9,91.71,129.56,91.3,129.24z"/>
	</g>
	<g opacity="0.8">
		
			<linearGradient id="SVGID_8_" gradientUnits="userSpaceOnUse" x1="-27.9878" y1="22.2532" x2="-40.7224" y2="31.4127" gradientTransform="matrix(1.78 0 0 1.8088 142.4776 90.5926)">
			<stop  offset="0" style="stop-color:#FFF68D;stop-opacity:0.97"/>
			<stop  offset="0.1317" style="stop-color:#FFF56D;stop-opacity:0.7754"/>
			<stop  offset="0.2772" style="stop-color:#FFF345;stop-opacity:0.5604"/>
			<stop  offset="0.4168" style="stop-color:#FFF21C;stop-opacity:0.3541"/>
			<stop  offset="0.5464" style="stop-color:#FFF200;stop-opacity:0.1625"/>
			<stop  offset="0.6564" style="stop-color:#FFF200;stop-opacity:0"/>
			<stop  offset="0.908" style="stop-color:#F47B20;stop-opacity:0"/>
			<stop  offset="1" style="stop-color:#ED1C24"/>
		</linearGradient>
		<path fill="url(#SVGID_8_)" d="M92.49,130.3c-2.59-2.64-7.1-2.75-9.81,0l-9.81,9.97c-2.71,2.75-7.1,2.75-9.81,0
			c0,0,9.81,9.97,9.81,9.97c2.71,2.75,7.1,2.75,9.81,0l9.81-9.97C95.2,137.51,95.2,133.05,92.49,130.3z"/>
	</g>
	<linearGradient id="SVGID_9_" gradientUnits="userSpaceOnUse" x1="87.7551" y1="145.3047" x2="74.4294" y2="131.979">
		<stop  offset="0" style="stop-color:#F26122;stop-opacity:0.77"/>
		<stop  offset="0.0597" style="stop-color:#F37021;stop-opacity:0.7073"/>
		<stop  offset="0.5521" style="stop-color:#FFDA00;stop-opacity:0.19"/>
		<stop  offset="0.6258" style="stop-color:#FFF200;stop-opacity:0"/>
		<stop  offset="0.632" style="stop-color:#FFE600;stop-opacity:0.0254"/>
		<stop  offset="0.6557" style="stop-color:#FFC709;stop-opacity:0.1218"/>
		<stop  offset="0.6785" style="stop-color:#FBAE18;stop-opacity:0.215"/>
		<stop  offset="0.7001" style="stop-color:#F99C1C;stop-opacity:0.3029"/>
		<stop  offset="0.7199" style="stop-color:#F7921E;stop-opacity:0.3836"/>
		<stop  offset="0.7362" style="stop-color:#F78E1E;stop-opacity:0.45"/>
		<stop  offset="1" style="stop-color:#FAA41A"/>
	</linearGradient>
	<path fill="url(#SVGID_9_)" d="M89.81,128.67c0,0,0.58,0.11,0.72,0.16c0.28,0.1,0.49,0.16,1.48,1.02c0.84,0.73,1.76,1.84,2.2,3.32
		c0.95,3.17-0.46,5.66-1.48,6.83c-0.11,0.12-0.22,0.25-0.4,0.43c-2.03,2.09-8.14,8.29-9.65,9.81c-2.37,2.37-6.67,3.03-9.58,0.16
		c-1.31-1.29-9.42-9.5-9.42-9.5s0.28,0.23,0.49,0.36c0.21,0.13,0.5,0.29,0.5,0.29s8,8.09,9.18,9.17c1.83,1.67,5.71,2.32,8.64-0.66
		c3.24-3.28,7.2-7.23,9.94-10.01c1.35-1.37,2.42-4.15,1.59-6.8c-0.43-1.38-1.2-2.33-2.06-3.15
		C90.9,129.07,89.81,128.67,89.81,128.67z"/>
	<g opacity="0.9">
		<linearGradient id="SVGID_10_" gradientUnits="userSpaceOnUse" x1="85.9332" y1="148.9329" x2="82.1525" y2="140.8252">
			<stop  offset="0" style="stop-color:#F58220;stop-opacity:0.82"/>
			<stop  offset="0.0418" style="stop-color:#F6892A;stop-opacity:0.7857"/>
			<stop  offset="0.2503" style="stop-color:#FAA967;stop-opacity:0.6147"/>
			<stop  offset="0.4469" style="stop-color:#FCC696;stop-opacity:0.4536"/>
			<stop  offset="0.6256" style="stop-color:#FEDDBF;stop-opacity:0.307"/>
			<stop  offset="0.783" style="stop-color:#FFEEDE;stop-opacity:0.1779"/>
			<stop  offset="0.9132" style="stop-color:#FFF9F3;stop-opacity:0.0712"/>
			<stop  offset="1" style="stop-color:#FFFFFF;stop-opacity:0"/>
		</linearGradient>
		<path fill="url(#SVGID_10_)" d="M77.61,152.15c2.06,0.04,3.8-1,4.66-1.85c1.58-1.57,8.77-8.86,10.29-10.38
			c1.41-1.4,2.25-4.38,1.53-6.48c-0.63-1.85-1.2-2.91-3.48-3.57c-2.28-0.66-7.2,4.96-7.2,4.96l-6.64,8.78l-4.69,2.31
			c0,0-3.18-0.23-2.93,0.24c0.19,0.35,0.72,0.81,1.67,1.78c0.93,0.95,2.23,2.33,3.22,3.04C75.02,151.66,76.09,152.11,77.61,152.15z"
			/>
	</g>
	<linearGradient id="SVGID_11_" gradientUnits="userSpaceOnUse" x1="66.1274" y1="129.6843" x2="75.382" y2="135.4282">
		<stop  offset="0" style="stop-color:#FFEEA2"/>
		<stop  offset="0.2542" style="stop-color:#FFF199"/>
		<stop  offset="0.6171" style="stop-color:#FFF591"/>
		<stop  offset="1" style="stop-color:#FFF78F"/>
	</linearGradient>
	<path fill="url(#SVGID_11_)" d="M62.26,131.27c0.22-0.34,0.42-0.59,0.8-0.98c2.71-2.75,7.1-2.75,9.81,0l4.41,4.49l0.14-0.15
		c-0.22-0.22-4.56-4.58-4.56-4.58c-2.18-2.12-6.08-2.88-9.27-0.35c-0.57,0.45-0.61,0.52-1.07,1.16L62.26,131.27z"/>
	<linearGradient id="SVGID_12_" gradientUnits="userSpaceOnUse" x1="65.5024" y1="142.0867" x2="88.0508" y2="127.9644">
		<stop  offset="0" style="stop-color:#FFEDA9"/>
		<stop  offset="0.0368" style="stop-color:#FFF9AE"/>
		<stop  offset="0.0904" style="stop-color:#FFF9B4"/>
		<stop  offset="0.3313" style="stop-color:#FFFBCE"/>
		<stop  offset="0.6258" style="stop-color:#FFFEEE"/>
		<stop  offset="0.8405" style="stop-color:#FFFCDD"/>
		<stop  offset="1" style="stop-color:#FFFCDF"/>
	</linearGradient>
	<path fill="url(#SVGID_12_)" d="M89.54,128.5c-0.49-0.16-3.96-1.24-6.63,1.43c-2.86,2.86-3.91,4.03-9.91,10.11
		c-3.15,3.19-7.28,2.93-9.78,0.34l0.26,0.29c2.74,2.65,6.64,2.45,9.46-0.34l9.79-9.98c2.61-2.61,5.7-2.44,8.12-1.24
		C90.85,129.11,90.3,128.75,89.54,128.5z"/>
	<g>
		<linearGradient id="SVGID_13_" gradientUnits="userSpaceOnUse" x1="62.8181" y1="139.7339" x2="65.9834" y2="136.618">
			<stop  offset="0" style="stop-color:#F58220;stop-opacity:0.41"/>
			<stop  offset="0.0702" style="stop-color:#F78D34;stop-opacity:0.3809"/>
			<stop  offset="0.2671" style="stop-color:#FAAC6D;stop-opacity:0.2995"/>
			<stop  offset="0.4536" style="stop-color:#FDC89A;stop-opacity:0.2222"/>
			<stop  offset="0.6245" style="stop-color:#FEDEC2;stop-opacity:0.1516"/>
			<stop  offset="0.7762" style="stop-color:#FFEEE0;stop-opacity:0.0887"/>
			<stop  offset="0.9035" style="stop-color:#FFF9F4;stop-opacity:0.0361"/>
			<stop  offset="0.9907" style="stop-color:#FFFFFF;stop-opacity:0"/>
		</linearGradient>
		<path fill="url(#SVGID_13_)" d="M63.44,129.81c0,0,2.06,5.05,3.74,6.77c1.68,1.72,4.23,4.01,4.23,4.01s-2.96,2.26-6.69,0.65
			c-2.37-1.03-3.11-2.81-3.48-4.3C60.17,132.57,63.44,129.81,63.44,129.81z"/>
	</g>
	<g>
		<path fill="none" d="M77.61,152.15c2.06,0.04,3.8-0.95,4.67-1.81c1.58-1.57,8.77-8.89,10.29-10.42c1.32-1.33,2.24-4.32,1.52-6.52
			c-0.61-1.85-2-4.04-4.32-4.53c-7.8-1.66-6.34,5.95-6.34,5.95l-6.77,3.35l-4.56,7.74c0,0-3.18-0.23-2.93,0.24
			c0.19,0.35,0.72,0.81,1.67,1.78c0.93,0.95,2.23,2.33,3.22,3.04C75.02,151.66,76.09,152.11,77.61,152.15z"/>
	</g>
	<g>
		<defs>
			<path id="SVGID_14_" d="M68.39,142.54c0,0,2.35,0,4.95-2.64c1.67-1.7,9.32-9.49,9.32-9.49s8.05,8.99-0.5,16.02
				C74.31,152.9,68.39,142.54,68.39,142.54z"/>
		</defs>
		<clipPath id="SVGID_15_">
			<use xlink:href="#SVGID_14_"  overflow="visible"/>
		</clipPath>
		<g clip-path="url(#SVGID_15_)">
			
				<radialGradient id="SVGID_16_" cx="-37.1533" cy="27.3692" r="4.8098" gradientTransform="matrix(1.78 0 0 1.8088 142.4776 90.5926)" gradientUnits="userSpaceOnUse">
				<stop  offset="0.1" style="stop-color:#FFE100;stop-opacity:0.82"/>
				<stop  offset="0.5449" style="stop-color:#FFE700;stop-opacity:0.3685"/>
				<stop  offset="0.908" style="stop-color:#FFF200;stop-opacity:0"/>
			</radialGradient>
			<path fill="url(#SVGID_16_)" d="M84.51,139.25c0,4.14-3.3,9.98-8.22,9.94c-4.07-0.04-8.11-6.43-8.11-10.57
				c0-3.58,2.15-6.86,5.46-7.6l3.88,4.11c0,0,3.59-3.5,3.6-3.49C82.77,133.57,84.51,136.66,84.51,139.25z"/>
		</g>
	</g>
	<linearGradient id="SVGID_17_" gradientUnits="userSpaceOnUse" x1="70.206" y1="147.063" x2="70.4011" y2="146.8787">
		<stop  offset="0" style="stop-color:#FFCE40;stop-opacity:0"/>
		<stop  offset="0.021" style="stop-color:#FFCF47;stop-opacity:0.0113"/>
		<stop  offset="0.3268" style="stop-color:#FFDD91;stop-opacity:0.1752"/>
		<stop  offset="0.4663" style="stop-color:#FFE4AB;stop-opacity:0.25"/>
		<stop  offset="1" style="stop-color:#FFDB52;stop-opacity:0"/>
	</linearGradient>
	<path fill="url(#SVGID_17_)" d="M64.88,141.67l5.63,5.81c0,0,2.35,2.61,3.44,3.35c1.19,0.8,2.44,0.8,2.44,0.8s-1.29-0.61-2.21-1.27
		c-0.92-0.66-3.25-3.2-3.25-3.2l-4.82-4.96c0,0-0.03,0-0.45-0.16C65.24,141.88,64.88,141.67,64.88,141.67z"/>
	<defs>
		<filter id="Adobe_OpacityMaskFilter" filterUnits="userSpaceOnUse" x="74.06" y="135.24" width="11.29" height="11.91">
			<feColorMatrix  type="matrix" values="1 0 0 0 0  0 1 0 0 0  0 0 1 0 0  0 0 0 1 0"/>
		</filter>
	</defs>
	<mask maskUnits="userSpaceOnUse" x="74.06" y="135.24" width="11.29" height="11.91" id="SVGID_18_">
		<g filter="url(#Adobe_OpacityMaskFilter)">
			
				<linearGradient id="SVGID_19_" gradientUnits="userSpaceOnUse" x1="-0.2433" y1="39.7632" x2="4.4883" y2="39.7632" gradientTransform="matrix(0.5382 -0.5087 0.5362 0.5673 57.4959 119.965)">
				<stop  offset="0" style="stop-color:#010101"/>
				<stop  offset="0.065" style="stop-color:#060606"/>
				<stop  offset="0.1278" style="stop-color:#141413"/>
				<stop  offset="0.1897" style="stop-color:#252424"/>
				<stop  offset="0.2511" style="stop-color:#3B3939"/>
				<stop  offset="0.3122" style="stop-color:#585555"/>
				<stop  offset="0.373" style="stop-color:#838080"/>
				<stop  offset="0.4324" style="stop-color:#C0BDBD"/>
				<stop  offset="0.4724" style="stop-color:#FFFFFF"/>
				<stop  offset="0.521" style="stop-color:#E9E8E8"/>
				<stop  offset="0.6027" style="stop-color:#C3C0C0"/>
				<stop  offset="0.7076" style="stop-color:#8E8B8B"/>
				<stop  offset="0.8315" style="stop-color:#535050"/>
				<stop  offset="0.97" style="stop-color:#151515"/>
				<stop  offset="1" style="stop-color:#010101"/>
			</linearGradient>
			<polygon fill="url(#SVGID_19_)" points="85.85,145.32 83.42,147.65 74.06,137.57 76.5,135.24 			"/>
		</g>
	</mask>
	
		<linearGradient id="SVGID_20_" gradientUnits="userSpaceOnUse" x1="2.1071" y1="30.9396" x2="2.1071" y2="47.71" gradientTransform="matrix(0.5382 -0.5087 0.5362 0.5673 57.4959 119.965)">
		<stop  offset="0" style="stop-color:#FFF200;stop-opacity:0.39"/>
		<stop  offset="0.9018" style="stop-color:#FFF200;stop-opacity:0"/>
	</linearGradient>
	<polygon mask="url(#SVGID_18_)" fill="url(#SVGID_20_)" points="85.35,144.81 82.92,147.15 74.06,137.57 76.5,135.24 	"/>
	<defs>
		<filter id="Adobe_OpacityMaskFilter_1_" filterUnits="userSpaceOnUse" x="73.5" y="135.59" width="8.51" height="13.93">
			<feColorMatrix  type="matrix" values="1 0 0 0 0  0 1 0 0 0  0 0 1 0 0  0 0 0 1 0"/>
		</filter>
	</defs>
	<mask maskUnits="userSpaceOnUse" x="73.5" y="135.59" width="8.51" height="13.93" id="SVGID_21_">
		<g filter="url(#Adobe_OpacityMaskFilter_1_)">
			
				<linearGradient id="SVGID_22_" gradientUnits="userSpaceOnUse" x1="-117.3298" y1="206.4994" x2="-112.6542" y2="206.4994" gradientTransform="matrix(0.6716 -0.3121 0.3271 0.7039 87.5512 -38.691)">
				<stop  offset="0" style="stop-color:#010101"/>
				<stop  offset="0.065" style="stop-color:#060606"/>
				<stop  offset="0.1278" style="stop-color:#141413"/>
				<stop  offset="0.1897" style="stop-color:#252424"/>
				<stop  offset="0.2511" style="stop-color:#3B3939"/>
				<stop  offset="0.3122" style="stop-color:#585555"/>
				<stop  offset="0.373" style="stop-color:#838080"/>
				<stop  offset="0.4324" style="stop-color:#C0BDBD"/>
				<stop  offset="0.4724" style="stop-color:#FFFFFF"/>
				<stop  offset="0.521" style="stop-color:#E9E8E8"/>
				<stop  offset="0.6027" style="stop-color:#C3C0C0"/>
				<stop  offset="0.7076" style="stop-color:#8E8B8B"/>
				<stop  offset="0.8315" style="stop-color:#535050"/>
				<stop  offset="0.97" style="stop-color:#151515"/>
				<stop  offset="1" style="stop-color:#010101"/>
			</linearGradient>
			<polygon fill="url(#SVGID_22_)" points="82.24,148.09 79.2,149.52 73.5,137.02 76.53,135.59 			"/>
		</g>
	</mask>
	
		<linearGradient id="SVGID_23_" gradientUnits="userSpaceOnUse" x1="-114.9966" y1="197.6387" x2="-114.9966" y2="215.3947" gradientTransform="matrix(0.6716 -0.3121 0.3271 0.7039 87.5511 -38.6915)">
		<stop  offset="0" style="stop-color:#FFF200;stop-opacity:0.39"/>
		<stop  offset="0.9018" style="stop-color:#FFF200;stop-opacity:0"/>
	</linearGradient>
	<polygon mask="url(#SVGID_21_)" fill="url(#SVGID_23_)" points="82,147.41 79.2,149.52 73.5,137.02 76.53,135.59 	"/>
	<defs>
		<filter id="Adobe_OpacityMaskFilter_2_" filterUnits="userSpaceOnUse" x="64.53" y="133.08" width="12.71" height="5.96">
			<feColorMatrix  type="matrix" values="1 0 0 0 0  0 1 0 0 0  0 0 1 0 0  0 0 0 1 0"/>
		</filter>
	</defs>
	<mask maskUnits="userSpaceOnUse" x="64.53" y="133.08" width="12.71" height="5.96" id="SVGID_24_">
		<g filter="url(#Adobe_OpacityMaskFilter_2_)">
			
				<linearGradient id="SVGID_25_" gradientUnits="userSpaceOnUse" x1="12.8443" y1="227.951" x2="17.456" y2="227.951" gradientTransform="matrix(-0.0868 1.2976 -0.647 -0.0434 219.1731 126.6877)">
				<stop  offset="0" style="stop-color:#010101"/>
				<stop  offset="0.065" style="stop-color:#060606"/>
				<stop  offset="0.1278" style="stop-color:#141413"/>
				<stop  offset="0.1897" style="stop-color:#252424"/>
				<stop  offset="0.2511" style="stop-color:#3B3939"/>
				<stop  offset="0.3122" style="stop-color:#585555"/>
				<stop  offset="0.373" style="stop-color:#838080"/>
				<stop  offset="0.4324" style="stop-color:#C0BDBD"/>
				<stop  offset="0.4724" style="stop-color:#FFFFFF"/>
				<stop  offset="0.521" style="stop-color:#E9E8E8"/>
				<stop  offset="0.6027" style="stop-color:#C3C0C0"/>
				<stop  offset="0.7076" style="stop-color:#8E8B8B"/>
				<stop  offset="0.8315" style="stop-color:#535050"/>
				<stop  offset="0.97" style="stop-color:#151515"/>
				<stop  offset="1" style="stop-color:#010101"/>
			</linearGradient>
			<polygon fill="url(#SVGID_25_)" points="64.53,139.05 64.92,133.08 76.22,133.85 75.83,139.81 			"/>
		</g>
	</mask>
	<g opacity="0.62" mask="url(#SVGID_24_)">
		
			<linearGradient id="SVGID_26_" gradientUnits="userSpaceOnUse" x1="15.142" y1="217.5602" x2="15.142" y2="236.7247" gradientTransform="matrix(-0.0868 1.2976 -0.647 -0.0434 219.1731 126.6877)">
			<stop  offset="0" style="stop-color:#FFFFFF"/>
			<stop  offset="1" style="stop-color:#FFFFFF;stop-opacity:0"/>
		</linearGradient>
		<polygon fill="url(#SVGID_26_)" points="64.53,139.05 64.92,133.08 77.24,134.82 73.14,138.99 		"/>
	</g>
	<defs>
		<filter id="Adobe_OpacityMaskFilter_3_" filterUnits="userSpaceOnUse" x="68.52" y="127.79" width="10.24" height="10.26">
			<feColorMatrix  type="matrix" values="1 0 0 0 0  0 1 0 0 0  0 0 1 0 0  0 0 0 1 0"/>
		</filter>
	</defs>
	<mask maskUnits="userSpaceOnUse" x="68.52" y="127.79" width="10.24" height="10.26" id="SVGID_27_">
		<g filter="url(#Adobe_OpacityMaskFilter_3_)">
			
				<linearGradient id="SVGID_28_" gradientUnits="userSpaceOnUse" x1="-71.1007" y1="105.7219" x2="-66.8109" y2="105.7219" gradientTransform="matrix(-1.0585 0.67 -0.4177 -0.66 44.5035 247.5473)">
				<stop  offset="0" style="stop-color:#010101"/>
				<stop  offset="0.065" style="stop-color:#060606"/>
				<stop  offset="0.1278" style="stop-color:#141413"/>
				<stop  offset="0.1897" style="stop-color:#252424"/>
				<stop  offset="0.2511" style="stop-color:#3B3939"/>
				<stop  offset="0.3122" style="stop-color:#585555"/>
				<stop  offset="0.373" style="stop-color:#838080"/>
				<stop  offset="0.4324" style="stop-color:#C0BDBD"/>
				<stop  offset="0.4724" style="stop-color:#FFFFFF"/>
				<stop  offset="0.521" style="stop-color:#E9E8E8"/>
				<stop  offset="0.6027" style="stop-color:#C3C0C0"/>
				<stop  offset="0.7076" style="stop-color:#8E8B8B"/>
				<stop  offset="0.8315" style="stop-color:#535050"/>
				<stop  offset="0.97" style="stop-color:#151515"/>
				<stop  offset="1" style="stop-color:#010101"/>
			</linearGradient>
			<polygon fill="url(#SVGID_28_)" points="67.85,127.43 72.14,124.67 78.22,134.69 74.53,138.47 			"/>
		</g>
	</mask>
	<g opacity="0.37" mask="url(#SVGID_27_)">
		
			<linearGradient id="SVGID_29_" gradientUnits="userSpaceOnUse" x1="-69.4" y1="97.593" x2="-69.4" y2="113.1374" gradientTransform="matrix(-1.0585 0.67 -0.4177 -0.66 44.5035 247.5473)">
			<stop  offset="0" style="stop-color:#FFFFFF"/>
			<stop  offset="1" style="stop-color:#FFFFFF;stop-opacity:0"/>
		</linearGradient>
		<path fill="url(#SVGID_29_)" d="M74.17,130.78c1.39,1.41,3.52,3.59,3.52,3.59l0.73-0.74l0.35,0.54l-3.8,3.89l-6.45-10.26
			c0,0,1.61-0.01,3,0.75C72.63,129.15,72.89,129.48,74.17,130.78z"/>
	</g>
	<defs>
		<filter id="Adobe_OpacityMaskFilter_4_" filterUnits="userSpaceOnUse" x="71.61" y="136.09" width="5.32" height="9.76">
			<feColorMatrix  type="matrix" values="1 0 0 0 0  0 1 0 0 0  0 0 1 0 0  0 0 0 1 0"/>
		</filter>
	</defs>
	<mask maskUnits="userSpaceOnUse" x="71.61" y="136.09" width="5.32" height="9.76" id="SVGID_30_">
		<g filter="url(#Adobe_OpacityMaskFilter_4_)">
			
				<linearGradient id="SVGID_31_" gradientUnits="userSpaceOnUse" x1="-92.9808" y1="280.9986" x2="-88.419" y2="280.9986" gradientTransform="matrix(0.8808 0.1309 -0.0767 0.5163 175.7098 7.765)">
				<stop  offset="0" style="stop-color:#010101"/>
				<stop  offset="0.1071" style="stop-color:#333130"/>
				<stop  offset="0.3799" style="stop-color:#AFACAC"/>
				<stop  offset="0.5" style="stop-color:#FFFFFF"/>
				<stop  offset="0.5428" style="stop-color:#D4D2D2"/>
				<stop  offset="0.7113" style="stop-color:#6C6968"/>
				<stop  offset="0.8487" style="stop-color:#353333"/>
				<stop  offset="0.9483" style="stop-color:#131313"/>
				<stop  offset="1" style="stop-color:#010101"/>
			</linearGradient>
			<polygon fill="url(#SVGID_31_)" points="75.59,145.85 71.61,145.25 72.94,136.09 76.92,136.69 			"/>
		</g>
	</mask>
	
		<linearGradient id="SVGID_32_" gradientUnits="userSpaceOnUse" x1="-90.7045" y1="272.1204" x2="-90.7045" y2="289.9104" gradientTransform="matrix(0.8808 0.1309 -0.0767 0.5163 175.7101 7.765)">
		<stop  offset="0" style="stop-color:#FAF181"/>
		<stop  offset="0.1567" style="stop-color:#FBF17C;stop-opacity:0.8263"/>
		<stop  offset="0.3614" style="stop-color:#FDF16C;stop-opacity:0.5993"/>
		<stop  offset="0.5927" style="stop-color:#FFF14D;stop-opacity:0.3427"/>
		<stop  offset="0.842" style="stop-color:#FFF200;stop-opacity:0.0664"/>
		<stop  offset="0.9018" style="stop-color:#FFF200;stop-opacity:0"/>
	</linearGradient>
	<polygon opacity="0.45" mask="url(#SVGID_30_)" fill="url(#SVGID_32_)" points="75.59,145.85 71.61,145.25 72.94,136.09 
		76.92,136.69 	"/>
	<defs>
		<filter id="Adobe_OpacityMaskFilter_5_" filterUnits="userSpaceOnUse" x="75" y="134" width="14.08" height="4.15">
			<feColorMatrix  type="matrix" values="1 0 0 0 0  0 1 0 0 0  0 0 1 0 0  0 0 0 1 0"/>
		</filter>
	</defs>
	<mask maskUnits="userSpaceOnUse" x="75" y="134" width="14.08" height="4.15" id="SVGID_33_">
		<g filter="url(#Adobe_OpacityMaskFilter_5_)">
			
				<linearGradient id="SVGID_34_" gradientUnits="userSpaceOnUse" x1="-48.6102" y1="77.0462" x2="-43.9875" y2="77.0462" gradientTransform="matrix(-0.0422 -0.7227 0.795 -0.0465 18.8332 106.1927)">
				<stop  offset="0" style="stop-color:#010101"/>
				<stop  offset="0.1071" style="stop-color:#333130"/>
				<stop  offset="0.3799" style="stop-color:#AFACAC"/>
				<stop  offset="0.5" style="stop-color:#FFFFFF"/>
				<stop  offset="0.5428" style="stop-color:#D4D2D2"/>
				<stop  offset="0.7113" style="stop-color:#6C6968"/>
				<stop  offset="0.8487" style="stop-color:#353333"/>
				<stop  offset="0.9483" style="stop-color:#131313"/>
				<stop  offset="1" style="stop-color:#010101"/>
			</linearGradient>
			<polygon fill="url(#SVGID_34_)" points="88.89,134 89.08,137.32 75.19,138.15 75,134.83 			"/>
		</g>
	</mask>
	<g opacity="0.5" mask="url(#SVGID_33_)">
		
			<linearGradient id="SVGID_35_" gradientUnits="userSpaceOnUse" x1="-46.3032" y1="68.3105" x2="-46.3032" y2="85.8147" gradientTransform="matrix(-0.0422 -0.7227 0.795 -0.0465 18.8332 106.1927)">
			<stop  offset="0.0122" style="stop-color:#FFE300"/>
			<stop  offset="0.0722" style="stop-color:#FFE400;stop-opacity:0.9353"/>
			<stop  offset="0.9386" style="stop-color:#FFF200;stop-opacity:0"/>
		</linearGradient>
		<polygon fill="url(#SVGID_35_)" points="88.89,134 89.08,137.32 75.19,138.15 75,134.83 		"/>
	</g>
	<defs>
		<filter id="Adobe_OpacityMaskFilter_6_" filterUnits="userSpaceOnUse" x="72.46" y="133.21" width="10.87" height="9.97">
			<feColorMatrix  type="matrix" values="1 0 0 0 0  0 1 0 0 0  0 0 1 0 0  0 0 0 1 0"/>
		</filter>
	</defs>
	<mask maskUnits="userSpaceOnUse" x="72.46" y="133.21" width="10.87" height="9.97" id="SVGID_36_">
		<g filter="url(#Adobe_OpacityMaskFilter_6_)">
			
				<linearGradient id="SVGID_37_" gradientUnits="userSpaceOnUse" x1="-27.45" y1="88.9086" x2="-24.417" y2="88.9086" gradientTransform="matrix(0.2867 -2.3939 0.5868 0.143 33.5555 62.3064)">
				<stop  offset="0" style="stop-color:#010101"/>
				<stop  offset="0.1071" style="stop-color:#333130"/>
				<stop  offset="0.3799" style="stop-color:#AFACAC"/>
				<stop  offset="0.5" style="stop-color:#FFFFFF"/>
				<stop  offset="0.5464" style="stop-color:#E8E7E6"/>
				<stop  offset="0.6267" style="stop-color:#BFBDBD"/>
				<stop  offset="0.7311" style="stop-color:#888584"/>
				<stop  offset="0.8556" style="stop-color:#4B4848"/>
				<stop  offset="0.9958" style="stop-color:#040404"/>
				<stop  offset="1" style="stop-color:#010101"/>
			</linearGradient>
			<polygon fill="url(#SVGID_37_)" points="83.2,134.63 81.74,141.52 73.38,139.64 75.98,132.82 			"/>
		</g>
	</mask>
	
		<linearGradient id="SVGID_38_" gradientUnits="userSpaceOnUse" x1="-28.5205" y1="106.4239" x2="-28.5205" y2="119.5381" gradientTransform="matrix(0.7777 -2.2495 0.574 0.1985 35.5644 51.0542)">
		<stop  offset="0" style="stop-color:#FFF20F"/>
		<stop  offset="0.5449" style="stop-color:#FFF200;stop-opacity:0.4551"/>
		<stop  offset="1" style="stop-color:#FFF200;stop-opacity:0"/>
	</linearGradient>
	<polygon opacity="0.75" mask="url(#SVGID_36_)" fill="url(#SVGID_38_)" points="83.32,135.19 80.88,143.18 72.46,139.68 
		76.92,135.12 77.3,134.77 78.83,133.21 	"/>
	<defs>
		<filter id="Adobe_OpacityMaskFilter_7_" filterUnits="userSpaceOnUse" x="72.28" y="134.28" width="8.16" height="7.83">
			<feColorMatrix  type="matrix" values="1 0 0 0 0  0 1 0 0 0  0 0 1 0 0  0 0 0 1 0"/>
		</filter>
	</defs>
	<mask maskUnits="userSpaceOnUse" x="72.28" y="134.28" width="8.16" height="7.83" id="SVGID_39_">
		<g filter="url(#Adobe_OpacityMaskFilter_7_)">
			
				<linearGradient id="SVGID_40_" gradientUnits="userSpaceOnUse" x1="-37.8237" y1="218.7971" x2="-34.8978" y2="218.7971" gradientTransform="matrix(2.2556 -0.6111 0.1431 0.5284 127.073 0.3636)">
				<stop  offset="0" style="stop-color:#010101"/>
				<stop  offset="0.0518" style="stop-color:#302F2E"/>
				<stop  offset="0.1102" style="stop-color:#575454"/>
				<stop  offset="0.1705" style="stop-color:#7F7C7B"/>
				<stop  offset="0.2317" style="stop-color:#A5A2A2"/>
				<stop  offset="0.2942" style="stop-color:#C7C5C5"/>
				<stop  offset="0.3584" style="stop-color:#E1E0E0"/>
				<stop  offset="0.4255" style="stop-color:#F5F4F4"/>
				<stop  offset="0.5" style="stop-color:#FFFFFF"/>
				<stop  offset="0.5621" style="stop-color:#F3F2F2"/>
				<stop  offset="0.6279" style="stop-color:#DEDCDC"/>
				<stop  offset="0.6956" style="stop-color:#BFBDBD"/>
				<stop  offset="0.7645" style="stop-color:#9A9797"/>
				<stop  offset="0.8343" style="stop-color:#706D6D"/>
				<stop  offset="0.905" style="stop-color:#464343"/>
				<stop  offset="0.975" style="stop-color:#191919"/>
				<stop  offset="1" style="stop-color:#010101"/>
			</linearGradient>
			<polygon fill="url(#SVGID_40_)" points="80.44,140.31 73.89,142.11 72.28,136.09 78.84,134.28 			"/>
		</g>
	</mask>
	
		<linearGradient id="SVGID_41_" gradientUnits="userSpaceOnUse" x1="-36.3635" y1="213.0743" x2="-36.3635" y2="224.5415" gradientTransform="matrix(2.2556 -0.6111 0.1431 0.5284 127.073 0.3636)">
		<stop  offset="0" style="stop-color:#FFDD00"/>
		<stop  offset="0.0952" style="stop-color:#FFDE00;stop-opacity:0.9048"/>
		<stop  offset="0.2197" style="stop-color:#FFDF29;stop-opacity:0.7803"/>
		<stop  offset="0.3604" style="stop-color:#FFE24D;stop-opacity:0.6396"/>
		<stop  offset="0.5132" style="stop-color:#FFE775;stop-opacity:0.4868"/>
		<stop  offset="0.6756" style="stop-color:#FFEC9C;stop-opacity:0.3244"/>
		<stop  offset="0.8434" style="stop-color:#FFF4CA;stop-opacity:0.1566"/>
		<stop  offset="1" style="stop-color:#FFFFFF;stop-opacity:0"/>
	</linearGradient>
	<polygon opacity="0.65" mask="url(#SVGID_39_)" fill="url(#SVGID_41_)" points="80.44,140.31 73.89,142.11 72.28,136.09 
		78.84,134.28 	"/>
	<defs>
		<filter id="Adobe_OpacityMaskFilter_8_" filterUnits="userSpaceOnUse" x="65.88" y="130.13" width="10.32" height="9.28">
			<feColorMatrix  type="matrix" values="1 0 0 0 0  0 1 0 0 0  0 0 1 0 0  0 0 0 1 0"/>
		</filter>
	</defs>
	<mask maskUnits="userSpaceOnUse" x="65.88" y="130.13" width="10.32" height="9.28" id="SVGID_42_">
		<g filter="url(#Adobe_OpacityMaskFilter_8_)">
			
				<linearGradient id="SVGID_43_" gradientUnits="userSpaceOnUse" x1="27.0833" y1="101.077" x2="30.0617" y2="101.077" gradientTransform="matrix(-0.9571 1.5006 -0.6707 -0.4278 166.1766 135.1371)">
				<stop  offset="0" style="stop-color:#010101"/>
				<stop  offset="0.0518" style="stop-color:#302F2E"/>
				<stop  offset="0.1102" style="stop-color:#575454"/>
				<stop  offset="0.1705" style="stop-color:#7F7C7B"/>
				<stop  offset="0.2317" style="stop-color:#A5A2A2"/>
				<stop  offset="0.2942" style="stop-color:#C7C5C5"/>
				<stop  offset="0.3584" style="stop-color:#E1E0E0"/>
				<stop  offset="0.4255" style="stop-color:#F5F4F4"/>
				<stop  offset="0.5" style="stop-color:#FFFFFF"/>
				<stop  offset="0.5621" style="stop-color:#F3F2F2"/>
				<stop  offset="0.6279" style="stop-color:#DEDCDC"/>
				<stop  offset="0.6956" style="stop-color:#BFBDBD"/>
				<stop  offset="0.7645" style="stop-color:#9A9797"/>
				<stop  offset="0.8343" style="stop-color:#706D6D"/>
				<stop  offset="0.905" style="stop-color:#464343"/>
				<stop  offset="0.975" style="stop-color:#191919"/>
				<stop  offset="1" style="stop-color:#010101"/>
			</linearGradient>
			<polygon fill="url(#SVGID_43_)" points="65.88,134.56 68.68,130.13 76.2,134.97 73.4,139.41 			"/>
		</g>
	</mask>
	
		<linearGradient id="SVGID_44_" gradientUnits="userSpaceOnUse" x1="28.5697" y1="95.4397" x2="28.5697" y2="106.7355" gradientTransform="matrix(-0.9571 1.5006 -0.6707 -0.4278 166.1766 135.1371)">
		<stop  offset="0" style="stop-color:#FAF181"/>
		<stop  offset="0.1279" style="stop-color:#FAF286;stop-opacity:0.8721"/>
		<stop  offset="0.295" style="stop-color:#FBF393;stop-opacity:0.705"/>
		<stop  offset="0.4839" style="stop-color:#FBF5A8;stop-opacity:0.5161"/>
		<stop  offset="0.6889" style="stop-color:#FCF8C6;stop-opacity:0.3111"/>
		<stop  offset="0.9045" style="stop-color:#FEFCEA;stop-opacity:0.0955"/>
		<stop  offset="1" style="stop-color:#FFFFFF;stop-opacity:0"/>
	</linearGradient>
	<polygon opacity="0.37" mask="url(#SVGID_42_)" fill="url(#SVGID_44_)" points="65.88,134.56 68.68,130.13 76.2,134.97 
		73.4,139.41 	"/>
	<g>
		<radialGradient id="SVGID_45_" cx="74.9305" cy="136.4256" r="4.247" gradientUnits="userSpaceOnUse">
			<stop  offset="0" style="stop-color:#FFFFFF;stop-opacity:0.93"/>
			<stop  offset="1" style="stop-color:#FFFFFF;stop-opacity:0"/>
		</radialGradient>
		<path fill="url(#SVGID_45_)" d="M80.24,136.29c0,2.17-2.58,4.81-4.98,4.81c-2.4,0-5.5-2.67-5.5-4.83c0-1.84,1.23-5.52,3.13-5.94
			l4.41,4.48l1.51-1.48C79.52,134.02,80.24,135.27,80.24,136.29z"/>
	</g>
</g>
</svg>
